<?xml version="1.0" encoding="UTF-8"?>
<svg id="Layer_1" xmlns="http://www.w3.org/2000/svg" version="1.1" viewBox="0 0 2500 2500">
  <!-- Generator: Adobe Illustrator 29.4.0, SVG Export Plug-In . SVG Version: 2.1.0 Build 152)  -->
  <defs>
    <style>
      .st0 {
        fill: #e0922f;
      }

      .st0, .st1, .st2, .st3, .st4, .st5, .st6, .st7, .st8, .st9, .st10 {
        fill-rule: evenodd;
      }

      .st1 {
        fill: #fff;
      }

      .st11 {
        fill: none;
      }

      .st2 {
        fill: #33a457;
      }

      .st3 {
        fill: #a27550;
      }

      .st4 {
        fill: #79513f;
      }

      .st5 {
        fill: #6cb476;
      }

      .st6 {
        fill: #668566;
      }

      .st7 {
        fill: #553117;
      }

      .st8 {
        fill: #cc2229;
      }

      .st9 {
        fill: #936349;
      }

      .st10 {
        fill: #00acec;
      }
    </style>
  </defs>
  <path class="st8" d="M2389.71,1889.49V610.36h-759.61v1279.13h759.61Z"/>
  <path class="st1" d="M1629.42,1889.87V610.75h-759.63v1279.12h759.63Z"/>
  <path class="st2" d="M869.92,1889.63V610.51H110.29v1279.12h759.63Z"/>
  <path class="st7" d="M1371.32,1015.55c3.7-2.48,4.94-7.02,7.83-9.08,2.87,7.83,7.39,19.8,0,26.82,37.44,14.02,54.33,53.63,67.91,87.04,5.34,9.91,15.23,12.79,24.69,14.03,0,3.31.8,7.02-2.89,8.66,1.25,9.49,3.7,21.87-5.75,28.05,2.45,44.56,9.45,91.59-9.88,129.54h-2.89c-3.7-7.83,2.89-15.65-2.05-22.67-4.94,2.45-1.65,14.01-9.88,12.79-5.77-4.12-4.54-38.79-9.88-14.86-4.94-9.07,2.05-26.39-9.88-28.88l-7.83-14.85c.4,4.95-5.77,4.95-8.24,3.31l-8.64-11.14c-.83,5.77-5.77,5.77-9.88,4.12-3.7-2.06-6.59-6.19-9.88-9.08-2.89,7.43-11.12,4.12-14.01-.82-12.33-11.56-19.75-28.05-37.44-29.7-2.05-1.66-3.29-4.54-5.77-4.95l3.72,25.58c36.2,26.82,63.79,74.68,108.65,80.46,3.29,1.25,2.48,4.97,1.25,6.61-14.41,8.24-31.28,17.73-47.75,11.12-7.83,7.44-21.4,5.37-30.45,11.98,5.34,5.34,6.59,12.79,9.88,19.78,6.99-7.83,13.98-17.3,23.86-21.87.4,2.48-2.05,3.32-1.25,5.77,4.94,2.48,15.23-13.61,14.82-.8,1.25,2.05,1.65,4.54,4.12,5.77,14.41-1.25,9.47-18.57,23.46-19.8,5.77,1.25,13.18-2.48,16.87,2.89,6.99-1.25,9.88-12.39,17.7-10.74-2.89,5.8-8.64,12.39-14.82,17.76,1.25,7.83,3.29,18.97-5.75,22.7-4.54,1.22-7.83-1.67-11.96-1.67l-11.93,9.91c2.89,3.32,10.69.83,9.88,5.77-6.19,11.98-27.99,7.85-26.34,22.7-5.75,13.2-19.35,26.42-32.93,30.96-4.1,2.89-6.59-6.21-9.88,0,3.7,0,6.59,4.1,8.24,6.59,1.65,10.34-4.1,17.33-9.04,24.75,7.81,5.8,7.81-10.31,15.63-4.94,3.29,6.19-7.83,10.74,0,14.03,4.94.4,9.47-.4,13.18-2.89,2.48-10.74-19.75-16.51-6.19-25.99,3.72,0,7.02,3.29,7.02,7.02-2.89,5.34.8,9.07,4.1,12.76,1.25-26.39,22.24-43.32,39.52-62.29l1.65-14.85c9.47,4.12,9.47,17.33,9.07,27.64,6.99-1.25,13.15-10.71,16.87-17.73,2.05-16.11-24.69-7.02-14.82-23.53,2.45-3.7,6.59-5.77,9.88-4.1,3.7,2.45,4.94,9.07,2.89,14.01,5.34,5.37,5.75,13.2,10.69,17.76,2.89-20.65-11.12-45.39,8.24-61.48,5.34-6.61,12.76-12.39,13.58-20.62,6.99-.83,2.05,7.42,6.19,9.88,2.45-6.19,15.23-11.12,7.83-18.97-6.19-9.07-32.13,2.89-22.65-15.68,2.48-2.45,6.59-4.54,9.88-2.05,1.65,2.05,2.89,5.77.8,7.83l9.88,2.89c-1.65-9.91-14.38-23.1-4.1-34.64,3.29-11.97-4.94-19.39-7.83-28.47,6.19-.82,14.82.42,17.7,7.83,5.75-9.91,8.64-20.22,16.87-28.88,3.29,7.42-2.45,23.1,4.94,30.95l2.05,1.65c5.37-6.6,2.89-17.74.83-25.58,6.99,1.65,7.39,11.13,11.12,16.91,5.75,23.51-1.65,47.03-19.75,63.12,6.59,2.48,12.33-8.66,19.75-1.65,1.22,4.12-1.65,7.42-4.94,8.66-3.29,0-6.59.4-9.07-2.05l-16.87,4.94c-.76,7.72-1.72,15.43-2.89,23.1,8.24,1.25,14.01-13.2,23.89-8.24-17.7,23.92-18.95,56.51-49.4,72.6.8,2.48,3.7,4.54,5.75,6.61,4.12-.83,9.07-6.61,12.76-1.67,3.7,2.48,2.05,7.85,0,10.74-3.7,2.89-7.83,7.02-12.76,4.12-5.75-3.72-.4-13.2-8.64-14.86-4.12-2.05-9.47-.8-14.01-1.22-3.29,4.12-2.05,11.12-2.05,14.85,2.89-.4,4.54-5.37,7.83-4.94,3.7,11.12-1.65,23.92-6.59,33.81-17.7,20.22-45.26,16.08-68.32,23.5,5.75,6.21,24.69,9.49,11.93,21.05-3.29,3.29-8.66,1.25-9.88-2.89-1.65-3.7,0-9.91-6.19-9.91l-7.83,13.63c4.94,6.19,20.6-4.97,14.82,9.07-21.82,3.7-40.74,15.28-62.14,20.62-15.25-5.77-28.83-14.44-41.57-26.8-4.97.4-14.97,11.37-19.51,13.02,0,0,25.67,13.77,28.55,13.77,0,0-8.24,12.79-12.76,23.94.4,3.72-4.51,8.26-8.24,4.94-7.81-9.07-18.92-20.22-30.45-16.9-4.11,3.29-2.46,12.36-9.88,11.96-.42-8.26-30.05-13.61-37.46-7.02-4.53-8.26,8.24-8.26,9.88-14.85l19.75-17.76-2.06-4.1c-11.93.4-13.99,25.15-25.52,14.01-3.29,2.08-6.59,0-9.05-2.05-3.71,3.29-4.93,10.31-10.7,9.91-4.94,2.89-9.05-4.12-9.88-7.85-6.17,3.72-13.58,7.42-21,5.77-4.53-4.54,0-11.12,0-14.85-9.47-.4-13.99,19.8-22.63,7.83-2.06-4.1,3.71-7.02.82-10.71-4.11,5.77-11.93,7.02-18.52,4.94-3.29-2.89-2.46-8.24-1.23-11.96,3.28-5.77,15.64-5.37,11.12-13.61-1.65-3.72-5.76-1.67-7.83-1.25-2.05,4.94-4.11,11.56-9.88,12.79-8.22-6.21-23.05,5.34-24.69-9.91-3.7.4-4.93-3.72-6.99-5.77v-7.02c-5.36,0-11.53,4.12-17.7,4.12-3.7-6.21-11.52-6.21-13.16-12.79,0-4.54,4.94-4.54,7-8.26-9.47-1.65-14.41-11.96-19.75-18.57.67-3.55,3.45-6.34,7-7.02h11.93c-2.06-4.12-8.65-8.24-11.93-14.03-2.06,2.48-3.71,5.8-7,7.02-5.76,1.67-9.47-2.05-12.75-5.77-4.53,2.08-10.29.83-13.99-2.05,2.46-8.26,13.18-10.31,18.92-14.85-9.45,4.1-23.46,2.05-31.69-5.77-1.23-3.72,1.65-5.77,4.11-8.26-6.17-2.89-15.23-1.25-18.92-8.66-.42-4.97,3.71-5.37,6.17-9.07-4.53-3.72-11.93-4.12-13.18-10.74,0-2.89-.42-6.61,3.29-7.02,15.23,7.42,5.36-12.79,16.47-12.79-1.23-4.94-6.59-7.83-9.88-11.96-7.83,8.66-15.23-3.72-24.69-.83-4.94-5.77-7.41-13.61-4.94-21.02,2.89-2.08,7-4.12,9.88-2.08,6.17,5.77,8.65,7.42,16.87,4.97-.82-14.03-23.46-9.91-22.65-26.42,2.06-2.45,4.11-3.7,7-4.1l.83.8c4.93-7.42-10.7-24.76,6.17-26.41l3.7,5.77,2.06-14.03c5.36-3.72,5.76,7.42,11.95,2.06l9.87-11.96c6.59,2.88,4.12,13.2,2.06,18.14l-3.29,4.95c4.53,1.65,6.59,3.71,9.05,7.83.42,8.25-10.29,9.48-12.76,16.91,1.23,0,5.76-.8,7.82.83l2.88,7.02c3.71-1.65,6.19-6.61,11.12-4.97,10.29,9.49,1.23,23.53,0,34.66-4.53,4.57-13.18,3.72-18.11.83l-2.85-2.89c-9.88,9.49,5.76,18.16,7.82,27.64,3.29-1.22,2.05-5.34,4.94-5.77,7.41,3.72,2.46,14.44,8.24,19.8,3.29-5.37,0-21.05,11.52-14.85,6.17,9.07-2.88,18.57,0,27.64,3.71.4,4.94-4.94,9.05-2.89l2.88,4.94c4.11-4.1,10.7-12.79,18.94-7.83,4.53,4.12,3.71,13.61.82,18.57-4.94,6.61,3.29,21.45-10.7,21.02,0,2.92-.82,6.21.82,8.69,2.46-4.57,7-8.69,11.93-7.02,3.71,3.29,3.29,8.24,7.83,11.12.51-4.27,3.15-7.99,7-9.88,11.93.8,6.17,23.92,21.82,18.55,11.12,6.21-2.46,23.53,11.93,26.82l5.77-12.79c-5.36-4.94-13.18-11.56-9.88-19.8,5.36-5.77,13.16-5.77,20.58-6.99-12.36-8.69-31.3-5.77-39.52-20.65-3.29-8.26,2.06-17.33,3.29-22.7,17.29,10.34,32.93,28.91,54.33,32.61,4.94,2.48,11.53,12.39,16.47,2.89l4.11-4.12c-4.11-2.05-9.88-4.54-10.7-9.91v-6.59c-14.82,1.25-25.52-5.37-38.69-11.14v-2.05l7-.83c-11.93-4.12-16.87-24.34-31.7-15.68-6.17,0-9.45-7.02-15.64-2.05-4.53-1.25-2.88-4.12-6.17-7.02-6.17-1.65-13.18-3.72-16.87-9.91-1.23-5.77,5.36-4.12,8.22-5.77-1.23-11.98-19.74-14.03-13.16-26.82,2.06-.83,2.88.83,4.11,2.08,6.17-7.02-2.88-12.39-4.94-18.16-7.82,2.89-15.64-2.48-18.94-9.91-7-12.39,7.41-14.03,13.18-21.45-6.59-4.12-7-13.62-4.94-21.05l2.88-.82c2.06,7.02-.82,15.68,5.76,20.63,6.17-3.71,15.23-5.77,21.82-2.06,8.65,5.77-.42,16.1,4.11,21.87,4.94,4.54.42,13.63,8.64,16.08,3.29-4.94-2.05-8.24-.82-13.2,6.59.83,6.17,9.49,8.65,14.03l18.11,9.91c-18.52-14.44-9.88-43.75-31.69-57.35-11.12-14.44,4.94-32.18-6.17-46.63-1.23,3.31-4.94,2.06-6.59.83-6.99-7.43-18.11-4.95-25.93-9.9-4.11-2.89-7-5.37-9.88-9.91-1.23-7.83,4.94-14.45,11.93-15.68,7.82,4.95,21.4-1.65,25.52,9.08,11.93-.42,24.29,9.08,29.64,20.62,7.41,18.16-17.29,41.26,11.12,49.51,11.93,8.25,2.46,36.32,23.46,29.7,4.53-4.12-.42-11.97,4.93-15.67-11.93-1.25-23.05-11.14-28.39-21.88-8.24-21.04-3.29-42.07,10.7-58.58l27.57-28.47c-6.17-13.62-26.74-7.43-37.46-9.08-3.29-2.89-9.47,1.65-11.93-4.12-3.71-4.53-6.17-11.56-3.71-17.73,1.23-5.77-5.36-11.14-7.82-16.91-3.71-18.99,18.52-21.45,27.57-33.42,8.24-4.54,8.65,7.43,10.7,11.96,0,2.89.82,6.2-.82,8.66-6.59,1.23-3.29-7.02-7-9.9-2.48,5.36-4.53,10.31-4.12,16.91,6.19,5.37,12.76-1.23,18.94-2.06-.82,9.08-10.7,12.79-16.87,17.74,2.88,1.25,6.17,5.77,11.1,4.12,7-9.49,17.7-15.27,14.82-28.88,2.46-9.08,13.58-8.25,16.46-16.5.82-5.77,3.29-13.2,0-18.14,1.25-1.65,3.29-.42,4.94-.82,2.06,2.89,3.29,5.77,6.17,7.83,3.71-4.12-.42-14.44,7-14.86l3.71,7.83c4.94-3.29-1.23-12.79,4.94-13.62,5.36,3.72,4.11,9.91,6.99,14.86,8.65-2.48-1.23-14.86,7-14.86,5.36,4.95,4.53,12.39,5.76,18.57,16.47,0,38.29-2.06,46.51,16.1,1.65.42,2.88.82,4.11,2.06,2.06-2.48,0-4.95-1.23-7.02-8.65-20.22-43.23-15.68-34.58-41.67,20.57-22.7,60.91-15.67,86.03-5.77,22.68,9.9,46.15,27.64,73.29,17.73h0v.07ZM1165.51,1107.55c22.23,36.72-40.34,48.69-36.22,84.16,6.17,29.3,43.23-.83,54.33,25.59,6.19,4.94-1.65,22.27,9.88,18.97-2.46-2.89-4.53-6.6-2.06-9.91h10.7l-10.7-25.58c-2.46,1.65-6.59,4.95-9.05.83-7-18.16-15.64-39.61-7.82-60.24-11.93-11.56,9.47-16.1,9.88-25.99-4.11-7.02,4.94-14.85,2.88-22.7-6.17,5.38-14.41,12.8-21.82,14.86h0ZM1253.61,1270.1c.4,7.02,7.83,14.86.82,21.45-9.47-14.01-21.4,0-32.52,1.25-7,1.25-16.06,5.77-22.65,0-.42-4.94.42-9.07,2.88-12.79-14.41,6.61-30.45-18.13-40.34-2.05l9.88,8.66c2.46,9.47-.42,19.38-4.94,26.8l4.94-.8c5.34,8.26,9.45-4.12,16.87,0l-1.23-1.25c-.52-3.56.53-7.18,2.88-9.91,9.88-1.65,19.75,3.29,28.82,6.19l.82-4.94c4.53-1.65,7.41-1.25,11.93,0,1.25,19.4,22.65,2.05,28.82,15.68,8.24-8.26,21.82-4.12,29.64-10.74-10.29-6.59-13.58-19.78-21.82-28.88l-4.12,6.21c-6.98-2.09-5.75-10.75-10.69-14.88h.01ZM1110.35,1283.73l-4.94-2.89,2.88.8,2.06,2.09h0ZM1119.41,1282.89l3.71,17.73h13.99v-2.05c-2.06-5.37.82-11.14,5.76-14.85l-23.46-.83h0ZM1180.33,1369.11l-4.94,8.66c5.76,6.19,11.53,11.14,18.11,14.86,2.06-2.08-.42-5.77,1.65-7.85-3.71.83-6.59-1.25-8.64-4.12-1.65-3.29,2.46-4.12,2.88-6.59-2.87-2.08-5.34-4.53-9.05-4.97h-.01ZM1035.44,1369.96c-3.29,5.77,2.88,10.31,5.77,14.85,5.34-6.59-7-8.66-5.77-14.85ZM1252.78,1376.97l-4.11,2.89c2.17,1.64,3.27,4.33,2.88,7.02l1.23-9.91ZM1139.17,1419.45c-12.75,2.48-.4,15.28-6.99,21.87,3.7,2.08,0,13.63,7.82,7.85,8.65.4,13.18,8.26,16.89,14.85l-1.25-5.77c2.06-3.7,5.76-7.42,11.12-6.19,2.05.4,4.53,2.89,4.94,4.94v-2.05c2.05-5.77,8.22-6.61,13.58-6.61,4.54,1.25,4.94,6.21,6.17,9.91,6.17,8.66,14.41,3.29,23.46,4.97,4.94-1.25,9.47,6.59,13.18.8-9.47-11.56-27.17-8.26-31.7-24.75-7.41-.83-19.75-3.72-21.82,5.77-5.36,6.19-13.18,4.94-20.58,4.94-3.71-3.29-9.88-8.66-6.17-14.85,4.12-8.26,12.36-13.61,21.82-12.79l-.82-7.02c-6.19-6.19-30.06-12.79-29.65,4.12h0ZM1334.69,1432.25c-8.64,1.25-16.06,4.12-19.75,12.79-4.94,4.94-12.36,6.19-18.92,4.12-5.37,4.54-16.06,6.59-15.65,14.85,24.29,20.22,37.87-19.38,59.27-20.62-4.94-2.48-3.29-7.42-4.94-11.14h-.01Z"/>
  <path class="st3" d="M1226.85,1010.6c4.11,9.9,13.99.82,19.75,7.83l-12.76,4.95c-5.76-3.31-13.58-5.77-15.64-12.79,2.46-9.49,12.35-13.22,20.58-14.86l-11.93,14.86h0Z"/>
  <path class="st3" d="M1292.29,1004.4c-1.25,5.37,1.65,11.14,4.94,16.1-16.87,2.48-30.04-6.6-40.75-16.91-4.93,5.37,4.95,11.54,6.17,14.85-8.65-2.46-14.81-10.73-23.86-11.96,12.33-21.87,37.03-4.55,53.5-2.08h0ZM1375.03,1020.5c1.25,7.43-4.94,13.2-10.69,15.68-21.4,5.77-37.05-9.08-55.58-13.62-4.94-3.71-9.04-8.25-10.69-14.02,23.85,8.25,51.04,30.12,76.95,11.96h0ZM1290.23,1048.97c-.83-2.89-4.1-4.12-6.99-4.95l-2.89,3.29,9.88,25.59c-1.65.42-6.59-7.83-9.88-2.89.4,8.66,6.99,17.33,5.77,27.64-5.37-1.65-3.72-11.56-11.96-9.91-4.1,4.12,0,11.96,0,17.74l-8.64-17.74c3.7,1.25,5.75-1.65,7.83-4.12-2.89-3.71,6.99-6.19,4.94-11.56,1.65-11.96-6.59-16.91-4.94-28.88-5.77-5.37,3.29-13.2-4.12-17.74,2.48-1.65,6.59-1.25,9.07,0,6.59,6.63,9.05,15.69,11.93,23.54h0ZM1265.54,1030.41c1.65,4.94-4.94,7.02-9.07,5.77-6.99,1.65-11.1-3.31-15.64-7.83,7.42-2.08,17.72-4.54,24.71,2.06h0Z"/>
  <path class="st9" d="M1322.76,1052.26l2.87,13.62c-6.16-19.39-33.33-20.22-34.58-38.36,14.82,2.06,23.05,13.61,31.71,24.75h0Z"/>
  <path class="st3" d="M1181.57,1043.2c4.53.42,7.42-4.95,9.88-7.83.82,3.72,1.23,10.73,4.94,14.86h2.88l.82-9.08c11.95.42,25.11-2.06,33.76,6.19-7,2.48-16.47-4.95-22.65,1.66,5.76,10.31,20.57,3.71,26.76,16.08-7.41,4.12-17.29-8.66-25.93-4.12,4.11,8.26,16.04,9.08,21.82,16.1-8.65,4.12-23.05,0-31.7-7.02,4.94-4.54,7-11.14,6.17-16.91-8.65-4.54-4.11,7.43-9.05,9.9-3.29,3.29-8.24,1.65-12.75,2.06,2.05-4.95.82-12.37-2.89-14.85h-2.06c-3.71,4.12,3.29,9.08-2.06,12.79-5.76,7.43-14.82-4.12-18.92,4.95h-1.65c-1.23-2.48,1.65-3.31,2.88-4.95,2.88.42,4.94-.82,7-2.89-.82-5.37-7-7.02-11.12-9.08h-3.71l3.71-10.73c3.29,2.88,1.23,10.73,7.82,9.9l4.11-11.14c-.42,2.06.42,3.71,2.06,4.95,5.34,1.23,5.76-5.37,6.99-8.66,2.46,2.05-1.23,6.19,2.88,7.83h.01Z"/>
  <path class="st9" d="M1431.43,1103.43c6.16,13.2,11.5,28.05,24.69,35.9-35.41-12.79-38.7-53.23-59.27-79.21-2.08-.42-4.12-3.71-5.77-1.23l15.65,28.88c-5.77,6.6,7.39,12.79,0,19.8-2.89,2.06-7.83.82-9.07-2.89-.8-4.95,6.19-2.48,6.19-7.02-1.65-22.7-21.4-37.96-38.7-51.58,5.77-7.43,17.3-4.12,25.94,1.23,19.34,14.44,34.97,33.83,40.34,56.11h0Z"/>
  <path class="st3" d="M1267.59,1047.31v3.72c-4.1-2.89-15.23,2.89-13.16-7.02,3.72,1.25,13.58-6.6,13.16,3.29h0Z"/>
  <path class="st9" d="M1318.64,1070.84l-14.82-17.74c7.02,3.31,13.18,10.73,14.82,17.74h0Z"/>
  <path class="st3" d="M1258.55,1073.73l-1.45,13.2c-2.46-8.25-11.32-26.39-18.31-31.76,9.88-.43,18.94,16.9,19.77,18.56h-.01Z"/>
  <path class="st8" d="M1137.11,1075.79c-2.06-7.83,3.7-13.62,8.65-17.74l9.05-.82c-6.59,5.36-2.48,22.27-17.7,18.56h0Z"/>
  <path class="st5" d="M1101.3,1079.91c3.71,0,4.93-.82,8.22.83-.82,1.65-11.1,4.12-8.22,11.13,3.28,5.37,10.29,2.48,14.82,4.95l2.06,13.62c-7,2.46-14.82.4-21.83-2.06-3.7-4.95-2.46-10.31,0-15.67-4.11-7.02-13.99-14.85-8.64-23.93l14.82-10.73c-.43,7.41-6.19,14.84-1.25,21.85h.02Z"/>
  <path class="st3" d="M1271.3,1067.11l-.8,6.6c-7.39-.82-9.88-9.08-12.76-14.85,5.36.83,12.35,1.25,13.57,8.25h0Z"/>
  <path class="st9" d="M1312.89,1083.62l-2.05,8.25c-4.54-11.13-14.82-19.8-16.9-31.76,9.47-.42,21,12.37,18.95,23.51h0ZM1391.09,1101.77c0,5.78,3.7,11.56.83,17.74-14.01,4.54-25.94-15.67-36.65-25.99,8.66,7.43,17.7,12.79,26.74,18.97,7.02-4.12-.4-9.91-.8-14.85l-24.69-34.66c13.98,9.91,25.1,24.76,34.58,38.78h0Z"/>
  <path class="st3" d="M1250.71,1087.75l-2.88,5.77c-4.54.42-4.94-4.54-7-6.6,3.29-.4,6.17-4.54,7.82-7.02,1.65-9.08-6.59,1.65-7.82-6.19l2.88-3.71c4.12,4.14,9.07,11.14,7,17.74h0ZM1203.39,1079.91c-8.24,6.19,4.53,30.53-11.93,23.51,0-1.18,10.29-19.86-11.93-32.59,16.67.62,18.92-.83,23.86,9.08h0Z"/>
  <path class="st3" d="M1184.45,1083.62c-2.88,6.6-9.88,12.39-16.87,14.03.4-5.78,3.71-12.39,1.23-16.91-14.82,3.71-31.69,8.25-39.52,21.87l1.65,7.83c-3.28,0-6.17-4.12-7.82-7.02,3.29-7.83,8.64-16.5,16.87-20.62,5.77-2.89,18.11,2.06,17.7-7.83,11.12-1.66,19.77,2.05,26.76,8.65h0Z"/>
  <path class="st9" d="M1328.52,1087.75c-2.45-3.29-7.39-9.08-.8-12.79,5.33,3.31-4.95,8.25.8,12.79Z"/>
  <path class="st3" d="M1216.15,1088.58l-7,19.8c4.53-7.83-10.29-25.99,4.94-24.76l2.06,4.95h0ZM1228.9,1086.92c2.06,4.55.42,9.91-2.06,13.62l-3.71-13.62h5.77Z"/>
  <path class="st9" d="M1322.76,1110.45l-4.12,4.95c-8.24-8.26-.4-19.39,1.25-28.47,3.7,5.36,4.93,15.67,2.88,23.51h-.01ZM1300.93,1096.83c2.89,6.6,2.89,14.44,4.12,21.45l-11.12-28.47c4.53-3.71,13.16.42,6.99,7.02h.01Z"/>
  <path class="st3" d="M1242.91,1133.13c-6.17-9.91-10.3-24.76-7-39.61,13.99,7.43,6.17,27.24,7,39.61Z"/>
  <path class="st5" d="M1162.64,1113.32c3.29,34.66-50.22,44.15-40.34,81.28,6.17,10.31,2.05,25.58,15.64,31.76-10.29,0-23.46-2.89-28.4-14.85-6.17-8.66-4.94-21.87-4.94-31.78,7.42-21.87,32.11-33.01,43.23-51.57-2.05-7.43-4.53-14.86-9.87-20.62-1.25-3.31.82-7.83,4.94-9.08,8.62,0,16.03,8.25,19.74,14.85h0Z"/>
  <path class="st9" d="M1259.36,1105.49l-2.89-7.02,2.89,4.95v2.06h0Z"/>
  <path class="st3" d="M1228.08,1108.37c0,8.66,4.94,18.16-4.94,23.93l-4.11,2.89c-.42-7.83,4.11-14.85.82-22.68-6.99,3.29-6.17,11.96-7.82,18.97-8.65-12.37,9.87-17.74,6.99-29.71,2.89,2.08,3.31,9.08,9.07,6.6h-.01Z"/>
  <path class="st9" d="M1297.24,1136.44l-9.04-28.88,4.94-2.89c2.88,9.08,11.52,21.04,4.1,31.78h0ZM1269.23,1151.29c-2.87-16.1-20.99-26.41-18.52-44.56,11.95,11.56,18.52,28.47,18.52,44.56Z"/>
  <path class="st3" d="M1197.21,1131.48h-2.06l7-21.87c-.01,5.36,5.76,18.16-4.94,21.87h0ZM1455.3,1167.8c-25.94-7.02-29.64-37.55-39.52-58.18,15.23,18.56,24.69,41.67,39.52,58.18ZM1186.51,1134.36c-2.48.82-4.12-1.23-6.19-2.06l13.18-16.9c-2.46,6.17-3.29,14.02-6.99,18.96h0Z"/>
  <path class="st9" d="M1285.3,1152.93l-1.25-35.49,6.17,20.63-4.93,14.85h.01Z"/>
  <path class="st3" d="M1409.61,1117.45c7.38,18.99,17.07,37,28.83,53.63l-2.89,2.89c-17.28-13.61-23.46-34.66-30.88-53.63-1.22-3.31,2.88-2.89,4.94-2.89h0Z"/>
  <path class="st9" d="M1379.15,1130.25c-5.34,2.89-11.53-2.89-16.87-5.78,4.51-9.07,11.09-1.23,16.87,2.08v3.71h0ZM1363.1,1140.15c-3.29,9.08-9.47.42-13.58-.82l-4.94-7.02c3.7-1.65,4.94-7.02,2.89-10.73,5.34,6.19,17.68,10.71,15.63,18.56h0ZM1312.05,1132.3c-1.22,2.89-2.45,6.6-6.19,7.83-2.05-4.95,7.83-9.48,7.02-15.68,2.06,2.49-2.88,5.8-.83,7.85h0Z"/>
  <path class="st3" d="M1426.47,1176.86c-12.74-8.25-25.51-27.64-30.45-44.56l1.65-4.94c8.24,16.5,14.82,34.66,28.81,49.51h-.01Z"/>
  <path class="st9" d="M1258.55,1162.01c-4.12-9.48-10.3-18.14-7.83-30.53,6.19,7.83,9.48,19.8,7.83,30.53h0ZM1244.55,1164.08c-5.36-9.91-12.76-19.8-12.76-30.95,9.05,7.43,13.58,18.56,12.76,30.95Z"/>
  <path class="st3" d="M1413.73,1176.86c-16.87-4.94-23.05-23.1-29.64-36.72l3.7-5.77c4.54,15.67,15.23,29.29,25.94,42.49h0ZM1229.73,1177.69c-7.82.82-9.47-8.66-12.76-13.62l-2.05-9.91,7,3.72c7.41-4.95-1.65-12.79,4.11-18.57,5.75,11.14,1.23,25.99,3.7,38.38h0ZM1375.03,1141.38c7.42,11.96,12.76,24.76,21.84,36.3-15.25,2.48-21.4-16.91-27.59-27.64l2.89-9.91,2.85,1.25h.01Z"/>
  <path class="st9" d="M1347.47,1147.16c-.83,2.89-1.65,5.77-4.12,7.02-4.1,0-7.39-3.29-8.64-7.02l5.75-5.77c2.88.82,4.93,3.71,7.02,5.77h-.01Z"/>
  <path class="st3" d="M1463.13,1147.98c.8,4.54-2.08,7.43-1.25,11.97-7.42-1.25-10.71-9.49-14.82-14.86l16.07,2.89h0ZM1039.15,1147.98c-1.65,2.89-7.41,5.37-7,9.91-4.11-5.37,2.88-9.08,7-9.91ZM1209.15,1192.54c-7-10.31-10.7-21.45-11.93-34.66,1.23,2.06,2.88,2.48,4.94,2.06,6.59-2.89-1.23-8.26,4.11-11.97-1.65,14.86-2.06,31.76,2.88,44.56h0Z"/>
  <path class="st9" d="M1329.75,1154.17l-1.25,5.78c-3.29-.83-6.19-2.89-8.64-5.78l3.7-4.94c2.49.42,4.14,3.29,6.19,4.94h0ZM1336.74,1186.76c-17.28-3.31-26.74-21.87-30.88-36.72,14.42,10.32,15.25,26.41,30.88,36.72Z"/>
  <path class="st3" d="M1053.96,1152.12c-2.06,3.71-8.65,9.08-4.94,14.85-3.71.42-7-4.12-8.64-7.02.42-5.78,8.64-9.49,13.58-7.83ZM1374.21,1176.03c-7.42-3.29-15.23-14.03-17.7-23.1,11.12,1.23,9.88,16.08,17.7,23.1ZM1186.51,1191.71c-5.97-10.57-9.09-22.51-9.05-34.66.82,2.46,2.46,5.36,4.93,5.77l6.17-6.6c3.71,9.91,6.17,26.42-2.05,35.49ZM1060.95,1169.85c-3.28,1.65-6.17-5.77-4.93-8.66,2.88-1.23,4.93-3.72,7.82-4.12l-2.89,12.79h0Z"/>
  <path class="st5" d="M1084.83,1173.97c4.94,14.45-8.22,24.76-3.28,39.61,25.94,8.66,14.41,41.67,39.52,47.46l3.28,12.79c-5.76.8-9.45-2.08-14.82-.83-18.52-14.01-7.41-41.26-29.64-52.4-8.65-16.5,5.36-41.67-11.93-54.46l.82-7.02c5.36,3.29,13.18,7.85,16.06,14.85h-.01Z"/>
  <path class="st3" d="M1361.45,1176.86l4.94,4.95c-5.75,0-12.33-2.89-16.87-9.08-2.05-2.89-4.94-6.19-4.94-9.9,9.47-6.2,8.64,10.31,16.87,14.02h0Z"/>
  <path class="st9" d="M1250.71,1174.8l7.83,16.1c-5.36-6.6-9.88-21.45-20.58-19.8l-1.23-8.25c2.05,6.17,8.64,9.9,13.98,11.96h0Z"/>
  <path class="st3" d="M1349.52,1183.88c-7.83-1.23-14.41-6.19-18.95-12.79l6.19-7.02c2.05,7.43,7.82,14.44,12.76,19.8h0Z"/>
  <path class="st9" d="M1274.18,1201.62c-4.94-9.08-13.58-17.33-14.82-26.82l14.82,26.82Z"/>
  <path class="st4" d="M1446.23,1174.8c3.29,25.17,4.33,62.93,3.09,88.52,0-26-5.55-60.87-7.2-86.46,1.25-.83,2.46-2.89,4.11-2.06ZM1457.56,1171.51l.64,5.36-1.65,98.8-5.15-96.95,6.16-7.21h0Z"/>
  <path class="st9" d="M1308.75,1189.65l3.29,17.74-18.11-29.71c5.77,3.31,7.42,17.34,14.81,11.97h0Z"/>
  <path class="st4" d="M1416.6,1184.7c2.48,16.5,3.32,35.07,2.89,51.58-7.39-16.93-11.53-35.07-15.63-53.63,4.1.82,8.62,4.53,12.74,2.05h0ZM1401.8,1223.48c-7.83-7.02-11.96-25.58-17.7-38.78,22.22-1.65,11.93,26,17.7,38.78ZM1430.6,1246.19v2.88l-4.12-62.29c2.08.4,7.83-5.37,7.02.82,3.28,20.22-2.06,39.19-2.89,58.6h-.01Z"/>
  <path class="st9" d="M1243.72,1196.67c-.82-.83-6.59-7.02-4.94-10.73l4.94,10.73Z"/>
  <path class="st4" d="M1384.09,1220.6c-9.47-8.25-13.61-18.97-18.95-28.88,3.29,0,5.77-8.26,9.88-4.95,5.37,10.31,5.77,24.34,9.07,33.84h0Z"/>
  <path class="st9" d="M1310,1217.3l-18.95-25.59,1.25-2.06c7.82,7.85,10.71,18.97,17.7,27.65h0Z"/>
  <path class="st4" d="M1346.62,1191.71c.4-.83,6.19,1.65,7.83-2.06l8.64,22.7-16.47-20.63h0Z"/>
  <path class="st3" d="M1224.79,1209.44l25.93,35.9c-15.23-11.14-23.46-25.99-34.58-40.84l2.06-8.66c5.77,2.06,3.29,9.49,6.59,13.61h0Z"/>
  <path class="st9" d="M1251.54,1234.22c-7-7.43-14.41-20.63-19.77-31.76l4.12-5.77c8.24,11.54,11.93,24.33,15.64,37.53h.01Z"/>
  <path class="st4" d="M1279.52,1219.98l-1.01,6.19-12.14-24.55c1.22,3.31,11.95,14.66,13.15,18.37h0Z"/>
  <path class="st3" d="M1178.68,1229.26c-9.47-17.33-34.16,2.48-43.63-16.91,13.18,9.48,41.17-7.85,43.63,16.91Z"/>
  <path class="st2" d="M1524.45,1237.1c2.45,3.31,4.94.82,7.83,0l4.94-8.66c2.05,20.62-4.94,41.66-24.69,52.41-6.19-8.66-14.41-16.51-14.01-27.66,4.94-8.24,4.94-20.21,1.25-28.87,7.83,6.6,4.12,19.4,10.69,25.99,3.72-11.97.43-26.41,7.02-36.73,1.21,7.44,7.79,15.69,6.98,23.53h0Z"/>
  <path class="st9" d="M1221.91,1250.3l-18.52-34.66,17.69,23.51.83,11.14h0Z"/>
  <path class="st4" d="M1440.47,1271.75c-4.54-16.08,0-36.29,0-54.45,1.25,17.73,7.83,37.95,0,54.45ZM1269.23,1240.4c7.83-9.49,13.18,14.02,16.9-1.25,11.53,16.94,28.81,31.35,34.58,50.75-19.35-11.56-34.58-31.76-47.34-48.68-2.08,20.21,20.17,32.59,21.82,52.41-11.12-25.59-32.53-47.04-39.52-74.28,4.53,7,6.99,14.85,13.57,21.04h0Z"/>
  <path class="st9" d="M1336.15,1235.45c-.4.4-4.33,2.88-3.93,3.71l-10.49-19.18,14.42,15.47h0Z"/>
  <path class="st2" d="M990.99,1244.11h8.65c-3.71,6.6-17.29,11.54-13.58,21.05,1.65,2.48,9.05,5.34,11.53,5.34l-10.29,26.82c-.83-11.14-15.64-25.99-21-33.41,4.94.83,6.17-4.54,7.82-7.83-1.23-4.14-2.46-7.44-2.06-11.97,2.88,1.23,6.59,3.29,9.88,1.23,4.53-4.54,0-9.9,0-14.85,3.29.42,10.29-.83,13.99-4.95-.43,6.6-9.9,11.97-4.95,18.57h0Z"/>
  <path class="st4" d="M1291.05,1234.22l-4.92-8.66,7.81,5.77-2.89,2.89ZM1303.81,1237.1c17.3,9.9,23.05,29.3,39.52,41.66l28.83,24.77-12.76,1.22c-20.6-24.75-44.05-47.85-61.33-73.43,4.51-5.76,4.94,3.31,5.75,5.78h-.01Z"/>
  <path class="st1" d="M1146.99,1250.3c-2.88-3.31-2.88-9.9,0-13.2l7.82-4.95c-1.23,4.55-9.47,10.32-7.82,18.16h0Z"/>
  <path class="st4" d="M1187.33,1251.13c-2.88,5.77-7.41,10.74-13.58,12.79-9.05,2.48-15.64-2.89-16.87-10.74-.42-4.11-2.89-10.3.82-14.02,10.29-11.96,23.46,4.12,29.64,11.97h-.01Z"/>
  <path class="st3" d="M1209.98,1240.4c-2.88.82-9.45-1.25-9.88-6.2,3.7,1.25,8.64,1.66,9.88,6.2Z"/>
  <path class="st0" d="M1061.78,1236.28c1.23,5.36-1.23,16.5-8.65,10.73l-6.17-6.59c4.54-2.91,9.07-4.97,14.82-4.14h0Z"/>
  <path class="st1" d="M1137.94,1250.3c-5.36-3.71-4.53-10.73,1.23-14.03l-1.23,14.03ZM1201.32,1246.19c-4.12,4.11-7.83,7.83-9.07,12.79,2.46-3.72,4.11-13.23,2.06-19.82l7,7.03h0Z"/>
  <path class="st4" d="M1416.6,1294.88c-2.87,2.45-7.39,4.1-11.93,4.94-20.57-16.93-41.57-33.81-61.33-53.63v-4.95c24.71,16.91,43.22,49.08,73.27,53.64h-.01ZM1379.15,1296.52c-21.4-14.86-38.7-33.44-55.58-54.47l55.58,54.47Z"/>
  <path class="st0" d="M1051.08,1254.02c-2.46,1.65-5.76,4.12-9.05,2.08-1.23-.43-1.63,1.22-2.88,2.05-2.88-3.72-7-12.39,1.25-14.03,4.93.83,5.33,8.26,10.69,9.91h0Z"/>
  <path class="st3" d="M1219.03,1256.9h-16.87c1.23-5.77,7.41-6.6,11.93-8.66,2.06,2.89,4.11,5.37,4.94,8.66h0Z"/>
  <path class="st4" d="M1274.18,1272.98c-4.1-2.48-4.51-8.66-9.88-9.07l-3.7,4.94-11.12-16.91c6.59,3.71,5.76-9.08,11.12-1.65l13.58,22.68h0Z"/>
  <path class="st3" d="M1241.66,1255.25l4.94,19.8c-7.82-2.48-12.76-14.86-15.64-23.94,2.48,4.14,9.05,6.63,10.7,4.14h0Z"/>
  <path class="st8" d="M1067.96,1276.72c-7,3.29-12.76-6.61-16.06-11.56,1.23-4.54,9.47-7.42,11.93-13.22,2.89,7.85,7.42,16.11,4.12,24.77h.01Z"/>
  <path class="st4" d="M1150.69,1256.9c2.46,5.77,4.54,11.96,2.06,18.16-7,1.65-15.64,1.65-20.58-4.12-5.76-4.54-4.11-12.79-2.89-18.99,5.78,4.95,14.42,12.37,21.41,4.95h0Z"/>
  <path class="st3" d="M1214.09,1265.16c-4.94,9.47-17.29,6.19-26.76,6.59l-3.71-1.65c7.82-4.94,20.17-3.29,30.47-4.94h0Z"/>
  <path class="st6" d="M1013.63,1280c-2.46-.8-4.12-2.89-7-2.05l5.76-7.85c3.31,1.23,2.49,7.02,1.25,9.9h-.01Z"/>
  <path class="st3" d="M1234.67,1277.95c.82-.4,1.23-1.25,2.06-1.25l1.23,1.25c-9.88,4.1-19.35,8.24-30.87,7.83l11.12-12.79c4.11,4.55,10.29,7.42,16.46,4.95h0Z"/>
  <path class="st5" d="M1113.23,1294.88c2.89,11.96-3.71,22.27-12.75,30.53h-2.88c1.23-.43.82-2.08.82-2.89-6.17-5.77-11.93,2.05-18.52.8,0-2.05-.42-3.7-2.06-4.94-3.29,0-7.41,4.54-9.88,0,2.88-8.26-6.17-16.51-9.05-24.75,3.71,0,.42-5.77-.82-8.66,3.29-2.08,7.82,2.89,11.93,0l5.76-9.91c15.24.01,25.52,13.61,37.46,19.82h0Z"/>
  <path class="st4" d="M1343.33,1317.55c-9.47-1.65-22.62.43-26.34-11.12-2.89-3.72-.8-11.14-6.99-11.56-1.65,1.22-2.48,2.87-2.05,4.94l-9.07-18.16c12.36,19.8,39.1,12.37,44.45,35.89h0Z"/>
  <path class="st4" d="M1352.4,1309.71c-9.07,4.12-12.36-8.26-16.9-13.2l-7.81-14.86,24.71,28.07h0Z"/>
  <path class="st6" d="M1010.75,1288.66v4.97h-9.05c.82-4.97,4.53-14.03,9.05-4.97Z"/>
  <path class="st0" d="M1166.75,1290.75c-.42,7.83-2.46,17.73-9.88,19.78-9.07,1.25-11.53-9.07-13.99-14.85-.82-4.54,4.93-7.42,7.82-9.07,4.54.4,9.47,5.77,9.88-1.65,3.29-.43,5.76,2.89,6.17,5.78h0Z"/>
  <path class="st1" d="M1076.61,1290.75c-1.23,4.94-4.94-1.25-7.82-2.08l1.23-2.89c2.88-.42,7,1.65,6.59,4.97h0ZM1089.77,1287.86c.41,2.26-1.05,4.45-3.29,4.94-3.71.4-7.42-2.89-5.76-6.19l9.05,1.25Z"/>
  <path class="st6" d="M977,1301.46l-.82,1.25c-2.46-.83-3.71-4.12-3.29-7.02l3.29-2.05c1.63,2.04,2.87,5.77.82,7.82h0Z"/>
  <path class="st1" d="M1080.72,1299.82c-3.29,4.12-8.65,4.12-12.76,1.65-2.46-2.05-4.11-5.37-1.23-7.83,3.29,14.85,18.11-8.66,13.99,6.19h0ZM1102.53,1297.74c2.46,4.12-.82,8.69-1.23,12.79h-1.65c-2.06-4.1-1.23-10.71,2.88-12.79Z"/>
  <path class="st2" d="M1493.57,1344.37c13.18-4.54,7.42-24.34,22.65-25.99-6.19,21.87-17.7,47.04-41.17,56.51-2.89-21.45-9.88-48.69,11.53-63.53-5.34,10.74-9.47,23.94-7.83,34.66h2.89c5.34-15.28,10.71-30.53,21.82-43.32,0,14.85-6.59,28.88-9.88,41.67h-.01Z"/>
  <path class="st1" d="M1091.42,1305.59c2.06,6.19-4.94,6.61-7.82,9.91h-2.05c-2.06-5.37,5.76-8.66,9.87-9.91h0Z"/>
  <path class="st5" d="M1137.94,1306.43c-.82,9.47-4.11,25.99,6.99,31.76,8.65,1.65,16.47-5.37,18.94-12.79l.82-4.12c4.11,3.29,15.23,1.65,11.93,9.07-2.46,7.85-4.11,14.03-9.05,19.8-8.24,3.29-16.06,7.83-26.76,5.77l4.94-5.77c-2.88-4.54-7,0-10.7,0-10.71-3.29-18.52-12.79-27.57-18.97,2.46-9.07,16.06-14.03,13.58-25.59l16.89.84h0Z"/>
  <path class="st0" d="M1307.95,1308.48l2.05-2.05c3.7,18.55,24.29,17.73,39.52,19.78,2.05,2.08,4.1,5.37,2.05,8.26-4.54,3.72-11.12,4.94-16.87,2.89,6.19-4.12-3.7-9.49-7.83-11.96-9.88-4.12-23.86-4.97-33.75-2.89,1.22-3.32-2.89-2.89-4.12-4.12l-18.52,4.94v-2.89c8.64-5.77,27.18.43,27.59-14.85,3.31,1.65,6.17,6.19,9.9,2.89h-.02Z"/>
  <path class="st5" d="M1221.91,1316.3c9.87,3.32,20.17,5.8,30.87,8.26-1.23,4.97-8.24,10.31-3.29,15.68,5.76,0,9.47-4.12,14.01-5.77.4,8.26-5.77,15.28-2.05,23.5-4.95,7.85-12.78,12.79-20.6,16.11l-1.23-9.09c-8.24-4.12-12.35,7.85-19.75,9.09,2.88-2.48,0-6.21-2.89-7.02l-17.69,7.83c-1.65-2.05,7-6.59.82-9.91-7.41,4.12-14.82-2.45-17.7-9.07-2.78-11.75.11-24.12,7.82-33.41l-.82-4.12c4.11,3.29,8.65-2.08,12.76,1.25,2.46-3.72.42-8.26-2.06-11.14,9.05-1.26,11.95,17.72,21.82,7.81h-.02Z"/>
  <path class="st8" d="M1157.69,1318.38c.42,4.94-3.71,9.07-7,11.96-4.11,1.65-6.17-2.89-5.76-5.77l.83-9.91,11.93,3.72h0Z"/>
  <path class="st0" d="M1438.42,1314.65c.8,2.48-2.48,6.21,2.05,7.85h1.65c2.05,4.54,2.05,11.96-3.7,13.61l-6.99-.8c.4-4.12,3.7-7.85.8-11.98-2.45-3.29-5.77-4.54-9.88-3.7,2.49-6.2,9.9-4.97,16.07-4.97h0Z"/>
  <path class="st1" d="M1242.91,1330.33c-.82,1.25-2.06.83-3.29.83-2.88-1.25-2.06-4.97-.82-6.61,3.7.01,4.51,2.49,4.11,5.78Z"/>
  <path class="st0" d="M1277.47,1337.35c-3.29-.4-2.45-4.12-3.29-6.19,4.94-2.89,9.88-5.37,16.06-5.77l-12.76,11.96h-.01Z"/>
  <path class="st8" d="M1427.31,1326.21c1.25,10.31-8.64,12.39-14.82,18.16-3.7,1.25-5.34-3.29-6.59-4.97-2.45-7.42,6.19-8.66,9.88-11.96,3.7-.4,7.83-3.7,11.53-1.23h0Z"/>
  <path class="st2" d="M1007.45,1337.35c1.65,3.29.82,7.42,4.94,9.91l6.99-1.25c-.49,4.33,1.4,8.6,4.94,11.14h7.82c-1.23,7.02-4.94,15.25-12.76,16.93l-12.75-1.25c2.05-2.48,9.45-2.08,9.88-7.85.82-8.26-9.05-4.12-11.95-9.07-5.34-.4-9.05,2.48-13.58-.83,6.59-3.29,12.76.43,18.52-4.94-.4-4.54-2.46-9.07-6.99-10.74l-18.52-1.22c4.53,1.22,8.24-.83,9.88-4.97v-7.02c6.16,1.25,4.51,16.08,13.57,11.14h0v.02Z"/>
  <path class="st1" d="M1235.9,1334.47l-1.23,6.61c-3.29,1.22-2.06-2.89-4.94-3.72-3.71.83-6.59,6.19-10.7,2.89-1.23-4.12,3.71-5.77,5.76-7.83-2.88-2.48-13.58,1.22-9.88-6.21,7.82.83,18.94-2.46,21,8.26h-.01ZM1120.24,1336.12c-2.48-1.25-2.06-3.7-2.06-5.77,1.65-1.65,3.29-4.12,6.17-2.89.82,3.72-.4,7.42-4.11,8.66ZM1171.69,1327.46c-1.65,2.08-.42,7.42-4.94,7.02-3.71-3.29,1.23-8.26,4.94-7.02Z"/>
  <path class="st5" d="M1401.8,1347.26l12.74,8.66c-7.39,7.42-18.52,8.66-28.39,11.96-.8,2.48.4,4.97,2.89,4.97l8.64-.83c-.4,3.72-4.94,7.42-8.64,8.66-11.93.83-23.89,0-30.88-8.66-2.45-.8-4.1.83-4.94,2.89l1.25,4.12c-8.24,0-11.12-12.39-18.95-7.02,2.48,9.49,12.76,13.2,21,14.86-10.69,7.83-25.51,5.34-38.68,5.77-6.59-16.11,15.63-13.63,20.57-26.82,9.07,4.54,14.41-6.61,21.82-8.66,2.08-11.14,11.12-19.8,17.7-27.64-.4,3.29.83,6.19,3.29,8.66l12.76-10.74c6.58,4.95,3.28,14.03,7.82,19.8v.02ZM1327.7,1333.23c-1.65,1.65-.83,4.12-.83,6.19,3.7,4.97,9.88,6.21,15.65,6.61-6.59,32.19-49.83,24.34-61.35,56.51-1.65,3.72-3.29,7.85-6.99,9.91-9.04-2.05-11.53-12.36-14.82-19.78,0-19.8,5.37-41.67,25.94-49.52,3.7-5.37,9.88-11.56,14.82-14.85,10.27-1.26,18.91,1.63,27.57,4.93h.01Z"/>
  <path class="st1" d="M1214.09,1343.14c0,6.61-2.88,12.79-9.05,16.08-3.29.43-6.59-.8-7.82-4.12v-2.05c4.53,1.65,11.93-2.05,11.93-7.83,1.23-5.37-6.59-7.85-2.88-12.79,5.77.8,6.17,6.98,7.82,10.71h0ZM1308.75,1343.14h2.08c2.45,4.54-3.32,5.37-7.02,6.19-4.94,1.25-6.59-2.45-7.81-6.19-.83-1.65,1.22-2.48,2.05-3.72h2.05c0,1.25-.8,2.89.8,3.72,4.54-1.25,2.89-8.66,9.07-8.66l-1.22,8.66h0ZM1356.51,1340.24c-.4,5.77-3.29,10.74-8.24,14.85,2.48-2.89-1.65-15.69,8.24-14.85ZM1167.58,1343.14c-1.65,4.54-6.19,6.19-10.7,6.19-.82-4.94,4.53-6.59,7.82-8.24,1.63-.44,2.05,1.21,2.88,2.05h0ZM1269.23,1346.02l1.25-4.94,2.05,2.06-3.29,2.88h-.01ZM1240.84,1344.37c-3.71,7.02-9.07,14.85-17.7,15.68-2.06-1.25-2.46-2.89-2.06-4.97,7-1.22,12.76-8.24,17.7-12.79l2.06,2.08ZM1379.96,1347.26c.83,2.05-.8,4.54-2.87,4.94-3.07.78-6.19-1.04-7.02-4.1l2.08-4.97c1.66,1.23,4.11,5.77,7.81,4.12h0Z"/>
  <path class="st1" d="M1205.03,1347.26v2.05c-1.65,1.25-5.36.43-6.59-2.05,1.65-1.25,5.34-4.12,6.59,0ZM1396.86,1345.21c.8,0,2.45-.43,2.87.8.83,3.72-2.05,6.61-3.7,8.26l5.77,1.65c-.43,3.29-3.29,4.54-5.77,4.94-4.54,1.25-7.39-1.65-9.04-4.94.8-3.72-1.65-8.26,2.05-10.71,3.29,0,4.94,5.77,7.82,0h0ZM1250.71,1350.98c.83,3.29-2.88,4.1-4.11,6.19-2.06,0-4.53.4-5.76-2.08-2.06-4.54,3.29-3.29,4.94-4.94,1.65.4,3.7-.84,4.93.83h0ZM1307.95,1355.92l5.75-2.89c2.48,1.25,0,4.12-.8,6.19l4.94,1.65c0,3.72-3.29,3.72-5.77,4.97-5.75,1.25-7.39-2.89-9.04-6.61-2.09-4.94,7.81-12.36,4.93-3.29v-.02ZM1289,1354.28c-2.87,1.65-2.87,4.54-2.87,7.83l1.22.83c4.12-1.25,4.12-6.61,8.66-7.85,2.05,1.25.4,5.37-.83,7.02l-4.12,3.72,9.07,1.25c.8,3.29-2.89,3.7-4.94,4.94-6.59,2.08-12.36-2.45-14.01-7.83,0-4.97-.4-10.74,4.97-11.98,1.63-.4,2.04,1.25,2.85,2.08h0ZM1336.74,1352.2c1.25,4.54-4.54,5.77-6.99,7.85-1.25,0-2.48.4-2.89-.83.01-4.54,5.36-7.02,9.88-7.02Z"/>
  <path class="st2" d="M1173.75,1369.96c-2.46,2.45-7.41,7.83-11.12,2.89,4.12-2.48,9.07-6.21,9.88-11.98-1.23-1.22-1.23-4.94,1.23-5.77,2.88,3.72,2.88,11.14,0,14.86h.01Z"/>
  <path class="st1" d="M1372.16,1360.87c4.51-.4,8.24-6.59,12.74-4.94-.8,4.94-5.75,7.02-8.64,9.91,1.25,2.05,3.7.8,4.94,3.29s-2.05,2.89-4.1,2.89c-4.12-.4-9.07-3.7-9.88-7.83,0-3.32-.83-7.44,2.87-9.09l2.08,5.77h0Z"/>
  <path class="st0" d="M1110.35,1372.85c-3.71,5.77-9.47,3.29-14.01,1.25-2.88-3.72-6.58-8.66-3.7-14.03,5.77,4.12,12.36,7.82,17.7,12.79h.01Z"/>
  <path class="st2" d="M1165.51,1360.05c1.65,3.29-1.65,7.83-5.76,9.07-.83-3.28.42-9.9,5.76-9.07Z"/>
  <path class="st1" d="M1310.83,1367.88c2.45,4.97-3.72,4.97-7.02,6.21h-1.65c0-1.25-.8-1.67-1.25-2.08,2.89-2.91,6.59-2.91,9.91-4.14h.01Z"/>
  <path class="st6" d="M1051.08,1378.83c-.42.4-7.41-16.08-8.24-16.51-2.06-1.22,9.88-12.17,11.53-13.4-.42,1.63-2.48,28.26-3.29,29.91Z"/>
  <path class="st0" d="M1242.91,1382.75l.82-.83c2.88,19.4,4.53,39.62,16.87,55.3-2.88,4.1-9.88,4.1-12.76,1.22-11.12-15.25-3.71-39.6-19.75-50.74-2.06-1.65-.82-4.54-1.23-7.02l4.93-3.7c1.66,2.88,5.77,7.81,11.13,5.76h-.01Z"/>
  <path class="st1" d="M1283.24,1376.97c2.05,5.77-18.52,14.01-2.89,13.61.8,2.48-1.65,3.72-2.89,4.12-4.94-.4-11.09-2.48-11.93-7.83,1.25-3.72-2.89-6.21,0-9.09l4.94,7.85c4.55-1.66,7-9.08,12.78-8.65h0Z"/>
  <path class="st10" d="M1168.81,1394.7l-4.94-4.97c2.89-1.22,4.94-4.54,7.83-6.99,6.17,8.24,14.4,15.25,23.46,17.73,7,9.49,7,22.27,4.94,33.01-7.82-7.42-28.39,3.29-23.46-16.08.83,0,2.48.4,2.88-.83-3.7-12.79-16.87-14.44-27.57-16.08-7.41,4.54-7.83-4.54-12.76-7.83l-23.05-11.98c19.74-.4,32.5,21.87,52.67,14.03h0Z"/>
  <path class="st0" d="M1214.9,1403.77c8.24,3.32,9.88-15.68,16.06-3.29,1.63,16.08,3.29,32.17,13.58,44.56l-11.53-1.65c-.42-7.42-2.46-16.08-9.88-18.97-9.47,3.29-9.88,2.89-14.82-4.97l-1.23-7.02c3.29,0,7.82,2.89,9.87-2.05-4.1-5.37-16.87-4.97-15.63-15.68,1.63-3.72,0-9.49,4.93-10.74-2.85,7.44-.39,18.16,8.66,19.8h-.01Z"/>
  <path class="st0" d="M1219.03,1395.52c-3.29.43-8.24.43-7.82-3.7-2.46-7.42,6.17-1.25,7.82-6.19v9.88h0ZM1297.24,1396.75c1.65-6.19,7.42-6.59,11.53-9.88-.01,2.46-6.6,8.65-11.53,9.88Z"/>
  <path class="st2" d="M1433.48,1403.77c-1.25,1.25-2.89,2.08-2.89,3.72,1.25,4.12,4.94,1.25,6.59,0,4.54-7.85,14.82-12.39,19.75-20.62,4.54,6.99-5.34,14.85,2.05,19.78l6.99-1.25c-1.65,10.74-7.81,19.8-16.87,25.99-14.41,4.97-30.45,6.21-45.26,9.91-2.48-21.87,13.18-39.6,27.59-54.43,4.12,4.54.83,11.13,2.06,16.9h-.01Z"/>
  <path class="st6" d="M1034.21,1395.52c-.82,2.08-14.4-3.7-16.04-3.29l11.1-4.54c5.34-.8,5.34,3.72,4.94,7.83h0Z"/>
  <path class="st0" d="M1386.14,1389.74c-4.94,6.21-11.93,10.34-19.75,10.74-4.54-3.72-.8-9.07.83-12.79,6.16.84,11.93,2.89,18.92,2.05Z"/>
  <path class="st2" d="M1067.96,1404.61c4.53,2.05,7-3.29,8.65-5.77v-3.32c6.17,7.02,7,22.7,18.92,18.16.42,7.85-1.23,16.93,4.94,22.7,8.24,2.89,10.7,11.56,14.82,17.73-8.65-2.05-22.65-5.34-29.64,2.89,1.65-4.94-2.06-12.36-7.82-13.61-7,.8-14.82,11.56-21,1.65l-3.29-3.29c4.94-9.49,6.8-3.09,19.35-11.56-9.88-9.09-25.94,4.94-30.87-13.63,6.17-2.89,19.75,2.89,18.92-9.07-2.05-2.08-4.93-3.29-6.99-5.77l4.11-9.07c2.06,4.54,4.94,9.47,9.88,11.96h.02Z"/>
  <path class="st10" d="M1357.34,1401.72c-7.02,7.42-26.77,0-24.69,13.61l6.99,6.21c-2.48,7.42-11.53,2.05-16.06,5.77,3.7-11.14-19.35-14.46-6.59-26.82,12.36-.4,27.99,2.05,38.27-5.77,1.65.8,1.25,4.53,2.08,7Z"/>
  <path class="st0" d="M1303.01,1411.63c2.45,1.22,5.75,3.7,5.75,7.02-7.83-2.48-15.23,2.89-20.57,9.88l-4.12,5.8c-3.29-5.8-11.53,2.05-17.68-2.08-7.83-8.66-10.3-19.4-11.95-30.53,4.53,6.61,8.22,16.48,16.86,18.57,7.83,1.25,14.01-5.77,16.9-11.56.8-11.14,14.82.4,19.75-9.09,2.05,7.44-11.13,4.12-4.94,11.98h0Z"/>
  <path class="st2" d="M1128.06,1401.72c-4.11.4-3.71,7.42-7,2.05-.42-.8-.82-1.25-1.65-1.25-4.53,1.67,0,4.97,0,7.02,3.71,4.54,10.3,4.54,12.76-2.05l-1.25-5.77h2.06c-.82,2.89-.82,7.42,4.11,8.66-2.06,2.45-2.46,6.19-6.19,6.19-6.99-6.19-13.99,1.25-18.52-9.91-1.21-9.07,10.73-5.77,15.67-4.94h0Z"/>
  <path class="st0" d="M1360.2,1416.57c1.25,4.97,0,11.96-4.94,15.68-2.45,4.54-8.64,6.61-11.93,4.12-1.65-.83-.4-2.89-.8-4.12,1.65-2.05,4.94,0,5.75-2.89-6.59-7.02,6.99-10.71,11.93-12.79h-.01Z"/>
  <path class="st6" d="M1126,1424.42c-2.46,4.94-2.06,11.96-7.82,14.85-3.29-4.94-.82-16.93,7.82-14.85Z"/>
  <path class="st0" d="M1308.75,1429.36c2.08,5.37-9.45,6.61-3.7,11.96-2.89,2.48-6.59-.4-9.04-2.05-3.72-3.29,2.45-7.02,2.87-10.74,2.05-3.29,10.71-5.78,9.87.83h0ZM1168.81,1439.27c-3.29,2.48-7.82,2.05-11.93,2.05-2.89-4.1,2.05-9.07,5.76-9.91l6.17.83v7.03ZM1221.91,1431.41c3.71,3.72,6.17,10.74,1.23,14.86-3.29,2.05-7.41,2.05-11.1.8-4.12-3.29-4.12-8.66-3.71-13.61l1.65-2.08,2.06,3.72,9.87-3.71h0v.02Z"/>
  <path class="st10" d="M1243.72,1459.07l-18.94-4.12c4.53-11.14,13.58.4,21-1.65,13.58-2.08,29.64-3.72,42.41-9.91-9.08,12.36-27.18,16.5-44.47,15.68h0Z"/>
  <path class="st6" d="M1129.29,1449.98l-1.23,4.97-7.82-7.85c1.65-3.71,9.47-2.06,9.05,2.88h0Z"/>
  <path class="st2" d="M1361.45,1448.33c-2.05.43-3.7,2.48-4.94,3.72,2.48,13.2,16.87,0,25.51,4.12,1.25,7.02-21.37,19.38-2.05,22.67l-44.46,14.86c-8.64-5.77-18.11-8.26-25.51-16.93,6.19-2.05,16.87,1.25,18.52-7.02l-13.58-.8c10.69-15.67,29.23-18.16,46.51-20.63h0ZM1186.51,1464.01c8.22,10.74,19.34,4.97,30.45,7.85-3.28,4.94-4.93,12.76-10.7,17.73-3.71-2.48,5.36-7.83-2.06-10.74-5.76-1.22-9.05,5.37-11.93,9.09-1.23,3.29-.82,7.42-4.94,9.91-2.06-4.97,4.94-9.91-2.06-13.23-7.82.43-12.76,8.69-20.58,9.91.42-3.29,3.71-12.36.82-16.48-6.59-.4-13.99,3.72-20.58,7.83v-9.91c-9.05-3.29-15.64,4.97-23.86,7.85,1.23-9.49,20.57-10.74,11.93-22.7l6.99,4.97,4.11-4.97-1.23-1.25,1.23-.8c4.11,6.59,8.65,14.44,17.7,14.01,3.85-2.29,5.13-7.25,2.88-11.12,2.89,5.34,7.82,8.66,13.99,7.83,4.94-3.7,2.46-7.83,1.65-12.79,3.31.42,4.14,4.95,6.2,7h0Z"/>
  <path class="st6" d="M1101.3,1461.12c0,3.32-3.29,5.77-5.77,7.02-1.65-.83-2.88-.83-4.11-2.05.83-3.72,5.77-7.85,9.88-4.97ZM1112.42,1463.2c-1.23,2.45-3.71,5.77-7,5.77l2.88-7.85,4.12,2.08Z"/>
  <path class="st8" d="M1274.18,1466.09c-2.45-1.25,3.29,11.12-1.65,18.55h-3.29l-1.65-19.78c2.89,1.25,3.7-2.08,6.59-.83v2.06h0Z"/>
  <path class="st2" d="M1246.6,1482.99c-6.17,2.89-5.36-4.94-7-9.07-2.06-4.54,3.7-5.37,4.94-7.02l2.06,16.08h0Z"/>
  <path class="st1" d="M1262.66,1478.05v5.77h-8.22c-2.88-4.54-2.06-11.96-.82-16.93,8.22-2.88,6.98,7.03,9.04,11.15h0Z"/>
  <path class="st2" d="M1224.37,1510.47h-9.61c.42-4.12,17.43-15.1,23.2-18.82-5.77,4.55-7.83,14.28-13.59,18.82h0Z"/>
  <path class="st1" d="M1229.86,1509.08l17.98-17.43-11.53,20.87-6.45-3.44Z"/>
  <path class="st8" d="M1244.55,1514.35c-1.25-.4-2.88-.4-3.71-1.65l17.7-21.05c-1.65,9.09-9.07,15.28-13.99,22.7h0ZM1298.87,1504.44c2.05,2.08-2.05,4.54-3.7,4.97-8.64-5.77-19.75-11.56-25.94-17.76l29.64,12.79h0Z"/>
  <path class="st2" d="M1290.23,1517.33c-1.25,1.25-1.36,8.11-3.45,8.94-5.75-7.42-17.12-18.11-26.2-19.75l3.01-8.43,26.64,19.25h0Z"/>
  <path class="st11" d="M2389.52,1889.49V610.36H110.62v1279.13h2278.9Z"/>
</svg>