<?xml version="1.0" encoding="UTF-8"?>
<svg id="Layer_1" xmlns="http://www.w3.org/2000/svg" version="1.1" viewBox="0 0 1028.9 615">
  <path class="st0" d="M465.2,588.6c-6.6,20.2-28.4,31.1-48.5,24.4l-1.6-.5c-20.2-6.6-31.1-28.4-24.4-48.5L568.5,26.4c6.7-20.2,28.4-31.1,48.5-24.4l1.6.5c20.2,6.6,31.1,28.4,24.4,48.5l-177.8,537.6h0Z"/>
  <path class="st0" d="M97.3,293c-1.2,1.2-1.2,3.2,0,4.4,87.9,87.2,142.9,141.1,165.2,161.8,24.7,22.9,33.7,47.6,8,72.3-26.8,25.6-44.9,2.8-66.9-18.8C116,426.7,54.7,366.4,19.6,331.9c-31.9-31.5-21.4-51.1,6.5-78,46.8-45.1,101.3-98.2,163.7-159.3,17.4-17,30.1-29.2,38.3-36.7,1.9-1.7,4.1-2.7,6.6-2.9,15.1-1.5,25.6.3,31.6,5.6,23,20.4,23,42.2,0,65.5-22,22.2-78.3,77.8-169,166.9h0s0,0,0,0Z"/>
  <path class="st0" d="M924.6,303.7c3.5-3.5,3.5-9.1,0-12.6-54.8-55.2-106.4-106.4-154.8-153.6-4.1-3.9-12.3-13.1-24.7-27.4-7-8.2-8.8-17.3-5.2-27.2,10-27.7,44.2-38.1,66.2-16.4,103.9,102.4,175.3,173.1,214.3,212.4,9.7,9.8,11.1,23,3.9,39.7-.8,1.8-1.9,3.5-3.4,4.9-21.5,21.2-39.3,38.4-53.4,51.4-56,51.4-103.4,100.3-164,160.8-5.3,5.3-12,9-19.8,11.2-2.1.5-4.4.5-6.6-.3-12.4-4.6-22-6.3-30.7-16.4-16.1-18.7-13.5-38.4,7.7-59.2,62.8-61.6,119.6-117.2,170.4-167.1h0Z"/>
</svg>