<?xml version="1.0" encoding="UTF-8"?>
<svg id="Layer_1" xmlns="http://www.w3.org/2000/svg" version="1.1" viewBox="0 0 35.7 48.6">
  <!-- Generator: Adobe Illustrator 29.0.0, SVG Export Plug-In . SVG Version: 2.1.0 Build 186)  -->
  <path d="M34.5,47.1c-1,1-2.2,1.5-3.6,1.5H4.7c-1.9,0-3.7-1.5-4.3-3.2C0,45,0,44,0,42.6V4.9C0,4.6,0,4.2.2,3.5.6,2,1.9.9,3.3.3c.4-.2,1-.3,1.8-.3h16c1.1,0,2,.3,2.7,1,3.4,3.2,6.4,6.3,10.2,10.1,1.1,1.1,1.7,1.9,1.7,3.4v28.9c0,.9,0,1.6-.2,2-.2.7-.6,1.2-1,1.7M33.2,14.8h-7.8c-.8,0-1.4-.1-1.8-.3-1.7-.9-2.6-2.2-2.6-4.2V2.8c0-.2-.1-.3-.3-.3H5.8c-1.9,0-1.5,0-2,.3-.9.5-1.4,1.3-1.4,2.5v39c.2.6.6,1,1.1,1.3.4.2,1.2.3,2.4.3h24.9c.9,0,1.5-.5,1.9-1.2.2-.3.2-1.1.2-2.2V14.6M24.1,11.7c.4.4.9.6,1.6.6h5.8s.1-.1,0-.1c-.5-.5-1.8-1.8-4-4s-3.5-3.5-4-4h-.1v5.8c0,.7.2,1.2.6,1.6h.1Z"/>
  <path d="M26.9,19.6c.9,0,1.7.7,1.7,1.7h0c0,1-.7,1.7-1.7,1.7H6c-.9,0-1.7-.7-1.7-1.7h0c0-1,.7-1.7,1.7-1.7h21-.1Z"/>
  <path d="M17.7,37.9c.9,0,1.6.7,1.6,1.6v.2c0,.9-.7,1.6-1.6,1.6H5.9c-.9,0-1.6-.7-1.6-1.6v-.2c0-.9.7-1.6,1.6-1.6h11.8Z"/>
  <path d="M17.6,28.5c.9,0,1.6.7,1.6,1.6h0c0,1-.7,1.7-1.6,1.7H6c-.9,0-1.6-.7-1.6-1.5h0c0-1,.7-1.7,1.6-1.7h11.6Z"/>
</svg>