<?xml version="1.0" encoding="UTF-8"?>
<svg id="Layer_1" xmlns="http://www.w3.org/2000/svg" version="1.1" viewBox="0 0 35.69 48.61">
  <!-- Generator: Adobe Illustrator 29.4.0, SVG Export Plug-In . SVG Version: 2.1.0 Build 152)  -->
  <defs>
    <style>
      .st0 {
        fill: #198980;
      }

      .st1 {
        fill: #0b7972;
      }
    </style>
  </defs>
  <path class="st0" d="M34.47,47.11c-.97.99-2.17,1.49-3.6,1.49-10.65.02-19.4.02-26.24,0-1.94,0-3.67-1.48-4.34-3.16-.19-.48-.29-1.43-.28-2.84C.03,31.19.02,18.63,0,4.92c0-.27.08-.73.23-1.38C.6,2.05,1.94.87,3.3.29c.44-.18,1.04-.29,1.79-.29,6.98-.02,12.3,0,15.95.02,1.13,0,2.04.34,2.74,1,3.43,3.23,6.43,6.35,10.19,10.08,1.07,1.06,1.71,1.91,1.71,3.38v28.94c0,.9-.07,1.56-.2,1.97-.22.66-.56,1.23-1.02,1.7M33.22,14.76s-.03-.07-.07-.07c-3.77.02-6.37.02-7.79,0-.8,0-1.39-.1-1.75-.28-1.73-.85-2.6-2.23-2.63-4.15-.03-2.44-.02-4.93.03-7.49,0-.15-.12-.27-.26-.27-8.01.02-12.97,0-14.89,0-.87,0-1.53.1-1.98.33-.91.46-1.36,1.31-1.36,2.54.02,16.76.02,29.19,0,37.29,0,.91.05,1.49.14,1.71.24.56.61.99,1.12,1.28.4.22,1.19.33,2.39.33,7.98-.03,15.88-.03,23.7,0,.54,0,.91.02,1.09.04h.13c.9-.09,1.52-.48,1.86-1.16.17-.33.25-1.07.25-2.2-.02-16.41-.02-25.71,0-27.9M24.08,11.67c.41.41.94.61,1.6.61h5.82c.08,0,.12-.1.06-.15-.49-.49-1.82-1.82-3.97-3.97-2.16-2.15-3.48-3.48-3.97-3.97-.05-.06-.15-.02-.15.06v5.82c0,.66.2,1.19.61,1.6h0Z"/>
  <path class="st0" d="M26.92,19.62c.92,0,1.66.74,1.66,1.66v.05c0,.92-.74,1.66-1.66,1.66H5.97c-.92,0-1.66-.74-1.66-1.66v-.05c0-.92.74-1.66,1.66-1.66h20.95Z"/>
  <path class="st1" d="M17.68,37.91c.88,0,1.59.71,1.59,1.59v.21c0,.88-.71,1.59-1.59,1.59H5.9c-.88,0-1.59-.71-1.59-1.59v-.21c0-.88.71-1.59,1.59-1.59h11.79-.01Z"/>
  <path class="st0" d="M17.56,28.55c.88,0,1.6.71,1.6,1.59v.08c0,.88-.71,1.6-1.59,1.6l-11.59.04c-.88,0-1.6-.71-1.6-1.59v-.08c0-.88.71-1.6,1.59-1.6l11.59-.04h0Z"/>
</svg>