<?xml version="1.0" encoding="UTF-8"?>
<svg id="Layer_1" xmlns="http://www.w3.org/2000/svg" version="1.1" viewBox="0 0 62.8 50.2">
    <path d="M52.3,0H10.5C4.7,0,0,4.7,0,10.5v29.2c0,5.8,4.7,10.5,10.5,10.5h41.8c5.8,0,10.5-4.7,10.5-10.5V10.5c0-5.8-4.7-10.5-10.5-10.5ZM42.5,25.3l15.9-16.7c.2.6.3,1.2.3,1.9v29.2c0,.7,0,1.3-.3,1.9l-15.9-16.3h0ZM52.3,4.1c1.4,0,2.6.4,3.7,1.2l-18.1,18.9c-2.3,2.4-4.4,3.6-6.5,3.6s-4.2-1.2-6.5-3.6L6.8,5.2c1-.7,2.3-1.2,3.7-1.2h41.8ZM4.4,41.6c-.2-.6-.3-1.2-.3-1.9V10.5c0-.7,0-1.3.3-1.9l15.9,16.7-15.9,16.3h0ZM10.5,46.1c-1.4,0-2.6-.4-3.7-1.2l16.4-16.8c2.7,2.5,5.4,3.6,8.2,3.6s5.5-1.2,8.2-3.6l16.4,16.8c-1,.7-2.3,1.2-3.7,1.2H10.5Z"/>
</svg>