<?xml version="1.0" encoding="UTF-8"?>
<svg id="Layer_1" xmlns="http://www.w3.org/2000/svg" version="1.1" viewBox="0 0 48.73 60.05">
  <!-- Generator: Adobe Illustrator 29.4.0, SVG Export Plug-In . SVG Version: 2.1.0 Build 152)  -->
  <defs>
    <style>
      .st0 {
        fill: #198980;
      }
    </style>
  </defs>
  <path class="st0" d="M41.59,7.14C36.99,2.53,30.87,0,24.36,0S11.74,2.53,7.14,7.14C2.53,11.74,0,17.86,0,24.36c0,4.67,1.21,9.46,3.61,14.23,1.85,3.68,4.41,7.36,7.6,10.94,5.36,6,10.7,9.68,10.92,9.84.66.45,1.43.69,2.23.69s1.57-.24,2.23-.69c.22-.15,5.56-3.83,10.92-9.84,3.19-3.58,5.75-7.26,7.6-10.94,2.4-4.77,3.61-9.55,3.61-14.23,0-6.51-2.53-12.63-7.14-17.23h0ZM41.77,36.91c-1.7,3.39-4.07,6.79-7.05,10.12-5.06,5.67-10.03,9.1-10.24,9.24-.04.03-.09.04-.12.04s-.07,0-.12-.04c-.21-.14-5.18-3.57-10.24-9.24-2.97-3.33-5.35-6.74-7.05-10.12-2.13-4.24-3.21-8.46-3.21-12.55,0-5.51,2.14-10.69,6.04-14.58,3.89-3.89,9.07-6.04,14.58-6.04s10.69,2.14,14.58,6.04c3.89,3.89,6.04,9.07,6.04,14.58,0,4.08-1.08,8.3-3.21,12.55Z"/>
  <path class="st0" d="M24.36,12.66c-6.68,0-12.11,5.43-12.11,12.11s5.43,12.11,12.11,12.11,12.11-5.43,12.11-12.11-5.43-12.11-12.11-12.11ZM24.36,33.15c-4.62,0-8.37-3.75-8.37-8.37s3.75-8.37,8.37-8.37,8.37,3.75,8.37,8.37-3.75,8.37-8.37,8.37Z"/>
</svg>