<?xml version="1.0" encoding="UTF-8"?>
<svg id="Layer_1" xmlns="http://www.w3.org/2000/svg" version="1.1" viewBox="0 0 48.7 60">
  <path class="st0" d="M41.6,7.1C37,2.5,30.9,0,24.4,0S11.7,2.5,7.1,7.1C2.5,11.7,0,17.9,0,24.4s1.2,9.5,3.6,14.2c1.9,3.7,4.4,7.4,7.6,10.9,5.4,6,10.7,9.7,10.9,9.8.7.5,1.4.7,2.2.7s1.6-.2,2.2-.7c.2-.2,5.6-3.8,10.9-9.8,3.2-3.6,5.8-7.3,7.6-10.9,2.4-4.8,3.6-9.5,3.6-14.2s-2.5-12.6-7.1-17.2h0ZM41.8,36.9c-1.7,3.4-4.1,6.8-7,10.1-5.1,5.7-10,9.1-10.2,9.2,0,0,0,0-.1,0s0,0-.1,0c-.2-.1-5.2-3.6-10.2-9.2-3-3.3-5.4-6.7-7.1-10.1-2.1-4.2-3.2-8.5-3.2-12.5s2.1-10.7,6-14.6c3.9-3.9,9.1-6,14.6-6s10.7,2.1,14.6,6c3.9,3.9,6,9.1,6,14.6s-1.1,8.3-3.2,12.5Z"/>
  <path class="st0" d="M24.4,12.7c-6.7,0-12.1,5.4-12.1,12.1s5.4,12.1,12.1,12.1,12.1-5.4,12.1-12.1-5.4-12.1-12.1-12.1ZM24.4,33.2c-4.6,0-8.4-3.8-8.4-8.4s3.8-8.4,8.4-8.4,8.4,3.8,8.4,8.4-3.8,8.4-8.4,8.4Z"/>
</svg>