<?xml version="1.0" encoding="UTF-8"?>
<svg id="Layer_1" data-name="Layer 1" xmlns="http://www.w3.org/2000/svg" viewBox="0 0 978.65 997.36">
    <path class="cls-1" d="M960.56,721.47l-1.56-2.18c-6.76-8.54-24.68-31.21-247.93-83.11-.88-.21-1.78-.39-2.67-.53-31.6-4.95-63.03,12.09-95.7,52.21-4.3,5.38-8.75,10.2-13.22,14.31-23.27,21.37-32.12,22.5-56.19,9.71-80.06-42.6-219.54-215.34-258.65-276.59-2.66-4.16-4.6-8.76-5.46-13.63-2.71-15.34,4.66-28.81,22.14-41.44,49.72-32.98,71.71-73.8,65.41-121.38-.22-1.7-.59-3.37-1.04-5.02l-58.23-211.45c-4.36-15.82-20.18-42.36-77.05-42.36-46.2,0-99.44,17.89-124.21,35.19C-72.3,159.83,2.84,411.87,122.56,591.57c.45.68.93,1.35,1.42,2.01,185.61,246.44,371.07,380.46,551.24,398.38.81.08,1.61.19,2.41.32,19.86,3.37,40.16,5.08,60.38,5.08,81.83,0,153.29-27.13,196.05-74.43,34.59-38.25,49.16-86.94,43.33-144.71-2.42-24.09-8.09-43.18-16.84-56.76ZM892.98,885.79c-32.27,35.7-88.75,56.18-154.96,56.18-17.79,0-35.64-1.56-53.06-4.63l-2.23-.31c-164.98-15.49-338.32-142.58-514.32-376.47C63.09,402.87-8.09,182.55,137.89,80.61c14.76-10.31,56.19-25.22,92.49-25.22,14.14,0,21.51,2.24,24.19,3.61l57.24,207.15c2.36,17.7-.85,41.18-42.02,68.51-42.79,30.86-57.17,75.27-38.04,119.81l2.45,4.61c33.1,55.23,186.2,250.16,283.06,301.69,18.25,9.71,34.19,14.23,50.2,14.23,30.49,0,52.22-16.21,69.46-32.04,6.55-6.02,12.96-12.93,18.87-20.33,24.49-30.06,38.5-32.4,42.22-32.4.65,0,1.33.05.65-.11,166.57,38.7,207.98,58.89,216.94,64.34,2.02,4.39,5.08,13.32,6.69,29.32,4.26,42.13-5.33,75.49-29.31,102.01Z"/>
</svg>