<?xml version="1.0" encoding="UTF-8"?>
<svg id="Layer_1" xmlns="http://www.w3.org/2000/svg" version="1.1" viewBox="0 0 72.4 79.9">
  <path class="st0" d="M36.2,40.5c11.2,0,20.2-9.1,20.2-20.2S47.3,0,36.2,0,15.9,9.1,15.9,20.2s9.1,20.2,20.2,20.2h0ZM36.2,5.1c8.4,0,15.2,6.8,15.2,15.2s-6.8,15.2-15.2,15.2-15.2-6.8-15.2-15.2,6.8-15.2,15.2-15.2Z"/>
  <path class="st0" d="M72,71.4c-2.4-7.4-7.1-14-13.3-18.6-6.5-4.9-14.3-7.5-22.5-7.5s-16,2.6-22.5,7.5c-6.2,4.7-10.9,11.3-13.3,18.6-.6,1.9-.5,4.1.7,5.8,1.2,1.7,3.1,2.7,5.2,2.7h59.9c2.1,0,4-1,5.2-2.7s1.3-3.8.7-5.8h0ZM67.1,74.3c-.1.2-.4.5-1,.5H6.2c-.5,0-.8-.3-1-.5-.1-.2-.3-.6-.2-1.1,4.2-13.7,16.7-23,31.1-23s26.9,9.2,31.1,23c.2.5,0,.9-.2,1.1Z"/>
</svg>