<?xml version="1.0" encoding="UTF-8"?>
<svg id="Layer_1" xmlns="http://www.w3.org/2000/svg" version="1.1" viewBox="0 0 66.79 66.79">
  <!-- Generator: Adobe Illustrator 29.4.0, SVG Export Plug-In . SVG Version: 2.1.0 Build 152)  -->
  <defs>
    <style>
      .st0 {
        fill: #198980;
      }
    </style>
  </defs>
  <path class="st0" d="M33.39,0C14.98,0,0,14.98,0,33.39s14.98,33.39,33.39,33.39,33.39-14.98,33.39-33.39S51.81,0,33.39,0ZM33.39,62.55c-2.91,0-6.65-5.93-8.45-16.17h16.91c-1.8,10.24-5.55,16.17-8.45,16.17h0ZM24.34,42.13c-.3-2.69-.46-5.61-.46-8.74s.17-6.05.46-8.74h18.11c.3,2.69.46,5.61.46,8.74s-.17,6.05-.46,8.74c0,0-18.11,0-18.11,0ZM4.24,33.39c0-3.04.47-5.98,1.34-8.74h14.5c-.3,2.81-.45,5.75-.45,8.74s.15,5.93.45,8.74H5.58c-.87-2.76-1.34-5.7-1.34-8.74ZM33.39,4.24c2.91,0,6.65,5.93,8.45,16.17h-16.91c1.8-10.24,5.55-16.17,8.45-16.17h0ZM46.71,24.65h14.5c.87,2.76,1.34,5.7,1.34,8.74s-.47,5.98-1.34,8.74h-14.5c.3-2.81.45-5.75.45-8.74s-.15-5.93-.45-8.74ZM59.49,20.41h-13.35c-.6-3.63-1.45-6.97-2.53-9.87-.76-2.04-1.62-3.8-2.56-5.28,8.07,2.2,14.76,7.79,18.44,15.15ZM25.73,5.27c-.94,1.47-1.8,3.23-2.56,5.28-1.08,2.9-1.93,6.24-2.53,9.87H7.3c3.67-7.35,10.36-12.95,18.44-15.15,0,0-.01,0-.01,0ZM7.3,46.38h13.35c.6,3.63,1.45,6.97,2.53,9.87.76,2.04,1.62,3.8,2.56,5.28-8.07-2.2-14.76-7.79-18.44-15.15ZM41.05,61.52c.94-1.47,1.8-3.23,2.56-5.28,1.08-2.9,1.93-6.24,2.53-9.87h13.35c-3.67,7.35-10.36,12.95-18.44,15.15Z"/>
</svg>