<?xml version="1.0" encoding="UTF-8"?>
<svg id="Layer_1" data-name="Layer 1" xmlns="http://www.w3.org/2000/svg" viewBox="0 0 53.39 57.84">
  <defs>
    <style>
      .cls-1 {
        fill: #fff;
      }
    </style>
  </defs>
  <path class="cls-1" d="M40.8,57.84c-2.86,0-6.02-.76-9.4-2.28-6.15-2.77-12.7-7.94-18.45-14.55C7.2,34.4,3,27.2,1.12,20.72-1.15,12.93.05,6.71,4.6,2.76,6.98.69,9.64-.27,12.08.06c2.18.3,4.08,1.58,5.49,3.7l5.59,8.39c1.9,2.87,1.38,6.73-1.22,8.98l-2.18,1.9c-.41.36-.36,1.17-.24,1.78.8,4.11,6.43,10.58,10.38,11.94.59.2,1.39.37,1.8.01l2.18-1.9c2.59-2.26,6.49-2.24,9.06.04h0s7.54,6.71,7.54,6.71c1.9,1.69,2.91,3.75,2.9,5.95-.01,2.47-1.33,4.96-3.71,7.03-2.47,2.15-5.47,3.23-8.88,3.23ZM11.11,4.04c-1.18,0-2.53.62-3.85,1.77C-.06,12.16,6.12,26.99,15.99,38.36c9.89,11.37,23.72,19.56,31.03,13.2,1.49-1.29,2.31-2.71,2.32-4,0-1.02-.51-2-1.54-2.91l-7.54-6.71c-1.06-.94-2.66-.95-3.73-.02l-2.18,1.9c-1.03.9-2.87,1.76-5.76.76-5.37-1.85-11.95-9.41-13.03-14.99-.58-3.01.52-4.71,1.55-5.6l2.18-1.9c1.07-.93,1.28-2.52.5-3.7l-5.59-8.39c-.76-1.15-1.66-1.8-2.67-1.93-.14-.02-.28-.03-.43-.03Z"/>
</svg>