<?xml version="1.0" encoding="UTF-8"?>
<svg id="Layer_1" xmlns="http://www.w3.org/2000/svg" version="1.1" viewBox="0 0 1268.63 1090.61">
  <!-- Generator: Adobe Illustrator 29.4.0, SVG Export Plug-In . SVG Version: 2.1.0 Build 152)  -->
  <defs>
    <style>
      .st0 {
        fill: #18cda9;
        stroke: #18cda9;
        stroke-miterlimit: 10;
        stroke-width: 15px;
      }
    </style>
  </defs>
  <path class="st0" d="M1175.01,200.47h-214.28c-1.81,0-3.27-1.57-3.27-3.5v-93.14c0-53.21-40.41-96.34-90.25-96.34h-465.7c-49.85,0-90.25,43.13-90.25,96.34v93.14c0,1.93-1.47,3.5-3.27,3.5H93.75c-47.63,0-86.25,41.22-86.25,92.06v698.51c0,50.84,38.61,92.06,86.25,92.06h1081.27c47.56,0,86.12-41.16,86.12-91.92V292.4c0-50.77-38.56-91.92-86.12-91.92h-.01ZM700.1,653.52v75.39c0,10.63-8.07,19.24-18.03,19.24h-95.51c-9.96,0-18.03-8.62-18.03-19.24v-174.24c0-10.63,8.07-19.24,18.03-19.24h95.51c9.96,0,18.03,8.62,18.03,19.24v98.84h0ZM529.76,513.28v79.6c0,10.63-8.07,19.24-18.03,19.24h-237.03c-60.42,0-109.4-52.28-109.4-116.78v-234.25c0-10.63,8.07-19.24,18.03-19.24h901.97c9.96,0,18.03,8.62,18.03,19.24v234.25c0,64.49-48.98,116.78-109.4,116.78h-237.03c-9.96,0-18.03-8.62-18.03-19.24v-79.6c0-10.63-8.07-19.24-18.03-19.24h-173.05c-9.96,0-18.03,8.62-18.03,19.24h0ZM350.03,119.59c0-39.05,29.65-70.7,66.24-70.7h436.19c36.58,0,66.24,31.65,66.24,70.7v61.64c0,10.63-8.07,19.24-18.03,19.24H368.06c-9.96,0-18.03-8.62-18.03-19.24v-61.64ZM1222.36,975.43c0,36.61-27.8,66.29-62.1,66.29H90.47c-24.43,0-44.2-21.25-44.2-47.18V308.28c0-36.69,27.86-66.42,62.23-66.42h0c9.96,0,18.03,8.62,18.03,19.24v234.25c0,86.99,66.68,158.16,148.17,158.16h237.03c9.96,0,18.03,8.62,18.03,19.24v97.53c0,10.63,8.07,19.24,18.03,19.24h173.05c9.96,0,18.03-8.62,18.03-19.24v-97.53c0-10.63,8.07-19.24,18.03-19.24h237.16c81.76,0,148.04-70.75,148.04-158.03v-234.38c0-10.63,8.07-19.24,18.03-19.24h18.16c24.3,0,44.07,21.11,44.07,47.18v686.39h0Z"/>
</svg>