<?xml version="1.0" encoding="UTF-8"?>
<svg id="Layer_1" data-name="Layer 1" xmlns="http://www.w3.org/2000/svg" viewBox="0 0 714.6 635.59">
  <defs>
    <style>
      .cls-1 {
        fill: #fff;
      }
    </style>
  </defs>
  <g id="iO7tDM.tif">
    <g>
      <path class="cls-1" d="M0,31.06C3.92,20.16,9.57,10.64,20.18,4.86c14.12-7.69,32.22-6.18,44.73,3.93,2.15,1.74,4.17,3.67,6.13,5.63,77.42,77.38,154.81,154.78,232.24,232.15,12.48,12.47,18.02,26.77,12.54,44.27-2.07,6.6-5.92,12.09-10.73,16.9-78.65,78.67-157.22,157.42-236.05,235.9-22.88,22.78-56.78,14.49-67.87-16-.34-.93-.78-1.82-1.17-2.73,0-5.95,0-11.9,0-17.85,3.46-11.19,11.03-19.4,19.12-27.47,65.32-65.11,130.5-130.36,195.72-195.57q5.74-5.74.07-11.43C149.41,207.11,83.95,141.58,18.36,76.17c-7.97-7.94-15.15-16.22-18.36-27.26v-17.85Z"/>
      <path class="cls-1" d="M348.75,635.59c-11.8-4.03-21.64-10.35-27.48-22.01-13.24-26.42,5.09-57.58,34.69-58.01,29.12-.42,58.26-.13,87.39-.13,76.49,0,152.99-.03,229.48.02,19.69.01,34.18,10.24,39.84,27.8,6.54,20.27-4.05,42.36-23.98,50.08-1.84.71-3.65,1.49-5.47,2.24h-334.47Z"/>
    </g>
  </g>
</svg>