<?xml version="1.0" encoding="UTF-8"?>
<svg id="Layer_1" data-name="Layer 1" xmlns="http://www.w3.org/2000/svg" viewBox="0 0 215.71 212.42">
  <defs>
    <style>
      .cls-1 {
        fill: #18cda9;
      }

      .cls-2 {
        stroke-width: 3px;
      }

      .cls-2, .cls-3, .cls-4 {
        fill: none;
        stroke: #18cda9;
        stroke-miterlimit: 10;
      }

      .cls-3 {
        stroke-width: 10px;
      }

      .cls-4 {
        stroke-width: 9px;
      }
    </style>
  </defs>
  <g id="Layer_1-2" data-name="Layer 1-2">
    <path class="cls-4" d="M141.34,185.24l-106.09-.58c-1.6,0-2.89-1.32-2.88-2.92,0-.54.16-1.07.44-1.52l26.85-42.88c.53-.85,1.47-1.37,2.47-1.36l53.63.29c1.85,0,3.57.93,4.61,2.46l25.66,37.72c1.76,2.55,1.11,6.05-1.44,7.8-.95.66-2.09,1-3.25.99h0Z"/>
    <path class="cls-2" d="M76.69,136.54c-.83.85-1.61,1.74-2.35,2.67-.01.77-.2,1.53-.54,2.22-3.19,6.52-7.74,12.16-11.33,18.45-2.08,3.66-3.76,7.74-5.8,11.55l41.88-34.8-21.86-.09Z"/>
    <path class="cls-3" d="M207.47,153.68l-65.37-119.13c-.18.88-.6,1.69-1.2,2.35-1.8,3.59-3.59,7.19-5.46,10.75-6.23,11.93-13.09,24.5-22,34.78l63.23,115.11c2.88,5.19,9.62,6.38,12.9,2.3l16.78-21c5.38-6.72,5.82-16.66,1.12-25.16h0Z"/>
    <path class="cls-3" d="M143.63,31.49L33.77,205.2c-1.55,2.46-4.79,3-6.21,1l-19-26.58c-5-7.05-4.73-17.39.78-26.1L95.67,17.05c8.54-13.5,26.36-16.24,34.1-5.24l13.86,19.68Z"/>
    <path class="cls-2" d="M136.85,42.61l-23.75,38.81,8.7,16.19,16.6-54.59c-.54-.05-1.06-.19-1.55-.41Z"/>
    <path class="cls-1" d="M119.88,85.63c.84-7.58,2.73-15.01,5.59-22.08.22-.79-.22-1.6-1-1.85-.78-.2-1.59.23-1.84,1-2.94,7.33-4.86,15.03-5.7,22.88-.21,1.92,2.8,1.9,3,0l-.05.05Z"/>
    <path class="cls-1" d="M115.62,82.83c2,2.41,3.28,5.33,3.69,8.43,0,.83.69,1.49,1.52,1.48.66,0,1.24-.45,1.42-1.08l9.71-32.25c.57-1.88-2.23-2.58-2.89-.8l-9.45,25.6,2.89.8,1.4-7.87c.18-.81-.34-1.61-1.14-1.79-.75-.16-1.5.27-1.75,1l-2.61,6.89c-.68,1.81,2.2,2.57,2.9.79l5.9-15.07c.55-1.38-1.57-2.58-2.5-1.46-2.63,3.09-3.68,7.23-2.83,11.2.25.8,1.1,1.25,1.9,1,.35-.11.65-.34.84-.64l8.44-12.72c1.07-1.61-1.53-3.11-2.59-1.51l-8.44,12.69,2.75.36c-.61-2.93.14-5.98,2.05-8.29l-2.49-1.42-5.91,15.07,2.9.79,2.6-6.89-2.91-.8-1.4,7.86c-.2.8.3,1.62,1.1,1.81.77.19,1.56-.26,1.79-1.01l9.45-25.6-2.89-.8-9.73,32.26,2.95.4c-.47-3.88-2.06-7.55-4.56-10.56-1.24-1.48-3.35.65-2.13,2.13h.02Z"/>
    <path class="cls-1" d="M64.47,165.34l15.24-19.86c.4-.72.17-1.63-.54-2.05-.71-.37-1.58-.13-2,.54l-15.29,19.9c-.41.72-.17,1.63.54,2.05.71.37,1.58.13,2-.54l.05-.04Z"/>
    <path class="cls-1" d="M68.85,158.09l8.59-13.7c1-1.64-1.57-3.15-2.59-1.52l-8.59,13.71c-1,1.64,1.57,3.15,2.59,1.51Z"/>
    <path class="cls-1" d="M70.99,159.92l23.22-19.49c1-.87.15-2.54-1.06-2.56l-7-.1c-2.36,0-4.75-.19-7.1-.08-2.12.1-3.32,1.24-4.34,3-1.05,1.84-1.82,3.84-2.26,5.91-.24,1.14,1.07,2.54,2.21,1.69,1.01-.76,1.79-1.78,2.26-2.95.46-1,.83-2.36,2-2.8,1.63-.43,3.32-.62,5-.55,1.9-.08,3.81-.07,5.72,0l-.4-2.94-7.72,1.15c-2.26.34-4.5.6-6.08,2.45-1.38,1.82-2.53,3.81-3.42,5.91-1.1,2.25-2.1,4.55-3,6.88-.2.82.3,1.64,1.12,1.84.37.09.76.04,1.09-.15,2.97-2.04,5.81-4.26,8.52-6.64,1.33-1.2,2.67-2.44,4-3.72.59-.59,1.17-1.19,1.74-1.79s1.21-1.6,1.95-1.45l.39-2.95-11.06.53v3l4.85-.54-1.07-2.56-7.61,7.8c-.56.61-.52,1.57.09,2.13.47.43,1.15.52,1.72.23,3.52-1.97,6.77-4.38,9.67-7.18,1.39-1.34-.73-3.46-2.12-2.12-2.72,2.61-5.77,4.87-9.06,6.71l1.82,2.35,7.62-7.8c.82-.85.29-2.71-1.06-2.56l-4.85.54c-1.87.2-2,3.09,0,3l11.06-.53c1.61-.07,2.14-2.59.4-2.94-2.13-.44-3.49.76-4.86,2.21s-2.72,2.79-4.15,4.12c-2.97,2.75-6.13,5.28-9.46,7.57l2.21,1.69c.79-2,1.67-4,2.62-6,.79-1.94,1.8-3.79,3-5.51,1.27-1.54,3.6-1.5,5.43-1.77l7-1.05c1.74-.26,1.2-2.87-.4-2.95-2.06-.09-4.11-.09-6.16,0-1.79-.02-3.57.19-5.31.63-1.35.46-2.46,1.43-3.1,2.71-.55,1-.84,2.61-1.82,3.34l2.16,1.71c.36-1.75.98-3.44,1.85-5,.31-.55.65-1.33,1.26-1.61.93-.19,1.88-.21,2.82-.06l11.83.16-1.06-2.49-23.23,19.46c-1.48,1.24.65,3.35,2.13,2.12h0Z"/>
  </g>
</svg>