<?xml version="1.0" encoding="UTF-8"?>
<svg id="Layer_1" data-name="Layer 1" xmlns="http://www.w3.org/2000/svg" viewBox="0 0 644.86 737.24">
  <path fill="#26CBB0" d="M113.57,468.91c-2.13,2.98-6.5,3.05-8.71.13C30.09,370.07-5.28,276.25,37.16,173.63c4.5-10.88,25.47,11.2,25.88-2.7C64.57,119.88,97.45,25.54,173.67.28c3.34-1.11,6.81,1.2,7.11,4.74,4.5,52.42,38.32,115.09,63.08,160.15,5.63,10.26,16.44-12.32,21.53-1.55,73.39,155.44-21.21,204.82-56.48,319.03-1.74,5.62,5.35,9.63,9.22,5.23,19.68-22.4,41.79-39.26,67.3-47.42,12.09-3.86-2.87,21.04,10.89,18.54,35.99-6.56,99.9-4.79,138.71,5.95,11.41,3.16-8.76,17.83,2.25,21.62,48.39,16.68,115.57,39.27,167.6,34.57,3.5-.32,6.36,2.71,5.88,6.21-11.03,79.29-91.27,115.92-140.92,126.36-13.51,2.84,10.1,13.82.33,20.3-35.78,23.73-89.77,56.1-134.87,43.88-8.66-2.34,4.99,19.85-3.76,19.36-52.18-2.91-109.11-28.84-167.13-59.73-3.2-1.7-3.87-6.02-1.34-8.63,47.38-49.1,145.45-71.82,253.96-79.43,6.49-.46,6.78-9.95.33-10.83-193.52-26.35-245.47-10.02-381.51,137.4-1.9,2.05-5.04,2.32-7.25.62l-26.44-20.4c-2.53-1.95-2.84-5.67-.68-8.02,173.17-188.62,237.98-215.44,156.11-485.22-1.91-6.3-11.22-4.4-10.54,2.16,11.25,108.17,6.01,208.5-33.44,263.76Z"/>
  <path fill="#26CBB0" d="M414.81,391c5.84-101.67,173.85-53.26,204.39-138.17,3.18-8.84-21.11-7.19-13.89-15.59,26.52-30.86,57.7-104.14,26.13-160.23-1.39-2.47-4.7-2.99-6.79-1.07-30.83,28.4-84.52,46.96-123.39,60.09-8.85,2.99-3.13-16.15-11.92-12.56-75.99,30.96-141.3,90.79-115.74,224.69.8,4.18,6.51,4.86,8.27.98,40.98-90.09,86.55-112.54,154.56-148.02,4.58-2.39,8.78,3.74,4.9,7.15-69.1,60.65-123.29,126.42-126.53,182.73Z"/>
</svg>