<?xml version="1.0" encoding="UTF-8"?>
<svg id="Layer_1" data-name="Layer 1" xmlns="http://www.w3.org/2000/svg" viewBox="0 0 55.61 63.07">
  <defs>
    <style>
      .cls-1 {
        fill: #fff;
      }

      .cls-2 {
        fill: #e44f26;
      }
    </style>
  </defs>
  <polygon class="cls-2" points="27.77 63.07 5.06 56.76 0 0 55.61 0 50.54 56.75 27.77 63.07"/>
  <polygon class="cls-1" points="27.82 18.56 44.62 18.56 45.24 11.6 27.82 11.6 27.8 11.6 10.37 11.6 12.25 32.66 27.8 32.66 27.82 32.66 36.37 32.66 35.56 41.68 27.8 43.78 27.8 43.78 27.79 43.78 20.04 41.69 19.55 36.14 12.56 36.14 13.53 47.07 27.79 51.03 27.82 51.02 27.82 51.01 42.07 47.07 43.98 25.69 27.82 25.69 27.8 25.69 18.61 25.69 17.98 18.56 27.8 18.56 27.82 18.56"/>
</svg>