<?xml version="1.0" encoding="UTF-8"?>
<svg id="Layer_1" data-name="Layer 1" xmlns="http://www.w3.org/2000/svg" viewBox="0 0 911.94 2030.29">
  <defs>
    <style>
      .cls-1 {
        fill: #c2bfbf;
      }

      .cls-2 {
        fill: #599636;
      }

      .cls-3 {
        fill: #6cac48;
      }
    </style>
  </defs>
  <path class="cls-2" d="M449.62,5.55l54.18,101.76c12.18,18.78,25.38,35.4,40.92,50.88,45.57,45,88.05,93.03,127.14,143.76,91.8,120.54,153.72,254.4,197.94,399.18,26.52,88.44,40.92,179.16,42,270.9,4.44,274.26-89.58,509.75-279.14,705.47-30.83,31.04-64.15,59.51-99.6,85.14-18.78,0-27.66-14.4-35.4-27.66-14.09-24.59-23.48-51.59-27.66-79.62-6.66-33.18-11.04-66.36-8.88-100.62v-15.48c-1.52-3.3-18.08-1525.9-11.48-1533.71h0Z"/>
  <path class="cls-3" d="M449.62,2.18c-2.22-4.44-4.44-1.08-6.66,1.08,1.08,22.2-6.66,42-18.78,60.9-13.32,18.78-30.96,33.18-48.66,48.66-98.33,85.14-175.73,187.98-237.72,303C55.33,570.62,12.82,736.52.77,911.18c-5.52,63,19.92,285.3,39.78,349.44,54.18,170.28,151.5,312.96,277.56,436.8,30.96,29.82,64.08,57.48,98.33,84.06,9.96,0,11.04-8.88,13.32-15.48,4.37-14.12,7.7-28.54,9.96-43.14l22.2-165.84L449.62,2.18Z"/>
  <path class="cls-1" d="M503.8,1830c2.22-25.38,14.4-46.44,27.66-67.44-13.32-5.52-23.22-16.49-30.96-28.74-6.67-11.59-12.2-23.81-16.49-36.48-15.48-46.44-18.78-95.16-23.22-142.62v-28.74c-5.52,4.44-6.66,42-6.66,47.58-3.23,50.16-9.88,100.03-19.92,149.28-3.3,19.92-5.52,39.78-17.76,57.48,0,2.22,0,4.44,1.08,7.74,19.92,58.62,25.38,118.32,28.74,179.16v22.2c0,26.52-1.08,20.94,20.94,29.82,8.88,3.3,18.78,4.44,27.66,11.04,6.66,0,7.74-5.52,7.74-9.96l-3.3-36.48v-101.76c-1.08-17.76,2.22-35.4,4.44-52.02l.06-.06Z"/>
</svg>