<?xml version="1.0" encoding="UTF-8"?>
<svg id="Layer_1" data-name="Layer 1" xmlns="http://www.w3.org/2000/svg" viewBox="0 0 470.25 600">
  <defs>
    <style>
      .cls-1 {
        fill: #44b78b;
      }
    </style>
  </defs>
  <path class="cls-1" d="M213.5,0h99.13v454.23c-42.31,8.68-85.38,13.16-128.57,13.37C63,467.48,0,413.4,0,309.55s66.82-165,170.4-165c14.53-.28,29.02,1.4,43.1,5V0h0ZM213.5,228.55c-10.78-3.55-22.08-5.25-33.42-5-50,0-79.08,30.58-79.08,84.15s27.68,80.98,78.45,80.98c11.4,0,22.78-.84,34.05-2.5v-157.63Z"/>
  <path class="cls-1" d="M470.12,151.48v227.5c0,78.32-5.88,115.97-23.08,148.45-17.55,33.02-46.26,58.74-81,72.57l-91.95-43.32c33.4-11.44,61.38-34.86,78.53-65.72,14.15-28.03,18.63-60.5,18.63-145.92v-193.55h98.87Z"/>
  <rect class="cls-1" x="371.15" y=".5" width="99.1" height="100.7"/>
</svg>