<?xml version="1.0" encoding="UTF-8"?>
<svg id="Layer_1" xmlns="http://www.w3.org/2000/svg" version="1.1" viewBox="0 0 1268.6 1090.6">
  <defs>
    <style>
      .st0 {
        fill: #18cda9;
      }
    </style>
  </defs>
  <path class="st0" d="M1175,200.5h-214.3c-1.8,0-3.3-1.6-3.3-3.5v-93.1c0-53.2-40.4-96.3-90.2-96.3h-465.7c-49.9,0-90.2,43.1-90.2,96.3v93.1c0,1.9-1.5,3.5-3.3,3.5H93.8c-47.6,0-86.2,41.2-86.2,92.1v698.5c0,50.8,38.6,92.1,86.2,92.1h1081.3c47.6,0,86.1-41.2,86.1-91.9V292.4c0-50.8-38.6-91.9-86.1-91.9h0ZM700.1,653.5v75.4c0,10.6-8.1,19.2-18,19.2h-95.5c-10,0-18-8.6-18-19.2v-174.2c0-10.6,8.1-19.2,18-19.2h95.5c10,0,18,8.6,18,19.2v98.8h0ZM529.8,513.3v79.6c0,10.6-8.1,19.2-18,19.2h-237c-60.4,0-109.4-52.3-109.4-116.8v-234.2c0-10.6,8.1-19.2,18-19.2h902c10,0,18,8.6,18,19.2v234.2c0,64.5-49,116.8-109.4,116.8h-237c-10,0-18-8.6-18-19.2v-79.6c0-10.6-8.1-19.2-18-19.2h-173c-10,0-18,8.6-18,19.2h0ZM350,119.6c0-39.1,29.6-70.7,66.2-70.7h436.2c36.6,0,66.2,31.7,66.2,70.7v61.6c0,10.6-8.1,19.2-18,19.2H368.1c-10,0-18-8.6-18-19.2v-61.6ZM1222.4,975.4c0,36.6-27.8,66.3-62.1,66.3H90.5c-24.4,0-44.2-21.2-44.2-47.2V308.3c0-36.7,27.9-66.4,62.2-66.4h0c10,0,18,8.6,18,19.2v234.2c0,87,66.7,158.2,148.2,158.2h237c10,0,18,8.6,18,19.2v97.5c0,10.6,8.1,19.2,18,19.2h173c10,0,18-8.6,18-19.2v-97.5c0-10.6,8.1-19.2,18-19.2h237.2c81.8,0,148-70.8,148-158v-234.4c0-10.6,8.1-19.2,18-19.2h18.2c24.3,0,44.1,21.1,44.1,47.2v686.4h0Z"/>
  <path class="st0" d="M1175,1090.6H93.8c-51.7,0-93.8-44.7-93.8-99.6V292.5c0-54.9,42.1-99.6,93.8-99.6h210v-89.1C303.8,46.6,347.6,0,401.5,0h465.7c53.9,0,97.8,46.6,97.8,103.8v89.1h217.5v.3c48.1,4.1,86.1,47,86.1,99.1v698.8c0,54.8-42,99.4-93.6,99.4ZM93.8,208c-43.4,0-78.8,37.9-78.8,84.6v698.5c0,46.6,35.3,84.6,78.8,84.6h1081.3c43.4,0,78.6-37.9,78.6-84.4V292.4c0-46.5-35.3-84.4-78.6-84.4h-214.3c-5.9,0-10.8-4.9-10.8-11v-93.1c0-49-37.1-88.8-82.8-88.8h-465.7c-45.6,0-82.8,39.9-82.8,88.8v93.1c0,6.1-4.8,11-10.8,11H93.8ZM1160.3,1049.2H90.5c-28.5,0-51.7-24.5-51.7-54.7V308.3c0-40.8,31.3-73.9,69.7-73.9s25.5,12,25.5,26.7v234.2c0,83.1,63.1,150.7,140.7,150.7h237c14.1,0,25.5,12,25.5,26.7v97.5c0,6.5,4.7,11.7,10.5,11.7h173c5.8,0,10.5-5.3,10.5-11.7v-97.5c0-14.7,11.5-26.7,25.5-26.7h237.2c77.5,0,140.5-67.5,140.5-150.5v-234.4c0-14.7,11.5-26.7,25.5-26.7h18.2c28.4,0,51.6,24.5,51.6,54.7v686.4c0,40.7-31.2,73.8-69.6,73.8ZM108.5,249.4c-30.2,0-54.7,26.4-54.7,58.9v686.3c0,21.9,16.5,39.7,36.7,39.7h1069.8c30.1,0,54.6-26.4,54.6-58.8V289c0-21.9-16.4-39.7-36.6-39.7h-18.2c-5.8,0-10.5,5.3-10.5,11.7v234.4c0,91.3-69.8,165.5-155.5,165.5h-237.2c-5.8,0-10.5,5.3-10.5,11.7v97.5c0,14.7-11.5,26.7-25.5,26.7h-173c-14.1,0-25.5-12-25.5-26.7v-97.5c0-6.5-4.7-11.7-10.5-11.7h-237c-41.5,0-80.6-17.3-110.1-48.8-29.4-31.4-45.6-72.8-45.6-116.8v-234.2c0-6.5-4.7-11.7-10.5-11.7ZM682.1,755.7h-95.5c-14.1,0-25.5-12-25.5-26.7v-174.2c0-14.7,11.5-26.7,25.5-26.7h95.5c14.1,0,25.5,12,25.5,26.7v174.2c0,14.7-11.5,26.7-25.5,26.7ZM586.6,542.9c-5.8,0-10.5,5.3-10.5,11.7v174.2c0,6.5,4.7,11.7,10.5,11.7h95.5c5.8,0,10.5-5.3,10.5-11.7v-174.2c0-6.5-4.7-11.7-10.5-11.7h-95.5ZM993.9,619.6h-237c-14.1,0-25.5-12-25.5-26.7v-79.6c0-6.5-4.7-11.7-10.5-11.7h-173c-5.8,0-10.5,5.3-10.5,11.7v79.6c0,14.7-11.5,26.7-25.5,26.7h-237c-64.5,0-116.9-55.8-116.9-124.3v-234.2c0-14.7,11.5-26.7,25.5-26.7h902c14.1,0,25.5,12,25.5,26.7v234.2c0,68.5-52.4,124.3-116.9,124.3ZM547.8,486.5h173c14.1,0,25.5,12,25.5,26.7v79.6c0,6.5,4.7,11.7,10.5,11.7h237c56.2,0,101.9-49,101.9-109.3v-234.2c0-6.5-4.7-11.7-10.5-11.7H183.3c-5.8,0-10.5,5.3-10.5,11.7v234.2c0,60.3,45.7,109.3,101.9,109.3h237c5.8,0,10.5-5.3,10.5-11.7v-79.6c0-14.7,11.5-26.7,25.5-26.7ZM900.7,208H368.1c-14.1,0-25.5-12-25.5-26.7v-61.6c0-43.1,33.1-78.2,73.7-78.2h436.2c40.7,0,73.7,35.1,73.7,78.2v61.6c0,14.7-11.5,26.7-25.5,26.7ZM416.3,56.4c-32.4,0-58.7,28.4-58.7,63.2v61.6c0,6.5,4.7,11.7,10.5,11.7h532.6c5.8,0,10.5-5.3,10.5-11.7v-61.6c0-34.8-26.4-63.2-58.7-63.2h-436.2Z"/>
</svg>