<?xml version="1.0" encoding="UTF-8"?>
<svg id="Layer_1" xmlns="http://www.w3.org/2000/svg" version="1.1" viewBox="0 0 2500 2500">
  <defs>
    <style>
      .st0, .st1 {
        fill: #fff;
      }
      .st1, .st2, .st3 {
        fill-rule: evenodd;
      }
      .st2 {
        fill: #33348e;
      }
      .st4, .st3 {
        fill: #cc2229;
      }
    </style>
  </defs>
  <path class="st1" d="M2389.71,1940.52V559.45H110.29v1381.07h2279.41Z"/>
  <path class="st2" d="M2389.71,1940.52V559.45H110.29v1381.07h2279.41Z"/>
  <path class="st1" d="M1514.22,1940.52v-481.85h875.49v-417.37h-875.49v-481.85h-540.74v481.85H110.29v417.37h863.19v481.85h540.74Z"/>
  <path class="st0" d="M387.89,559.45l2001.82,1212.95v168.15h-272.65L110.29,724.61v-165.16h277.59Z"/>
  <path class="st0" d="M2112.13,559.45L110.29,1772.4v168.15h272.66l2006.75-1215.94v-165.16h-277.58Z"/>
  <path class="st3" d="M2389.71,1116.77h-974.83v-557.32h-328.81v557.32H110.29v266.42h975.77v557.32h328.81v-557.32h974.83v-266.42Z"/>
  <path class="st4" d="M111.33,559.45l791.87,481.85h-177.72L110.29,666.96v-107.51h1.04ZM110.29,1938.12v2.43h173.72l689.47-419.55v-62.33h-75.29L110.29,1938.12ZM2389.71,1940.55v-100.67l-626.48-381.21h-177.72l791.92,481.88h12.28ZM2201.8,559.45l-687.58,418.4v63.45h73.43l791.87-481.85h-177.72Z"/>
</svg>