<?xml version="1.0" encoding="UTF-8"?>
<svg id="Layer_1" xmlns="http://www.w3.org/2000/svg" version="1.1" viewBox="0 0 215.7 212.4">
  <defs>
    <style>
      .adardev0 {
        fill: #18cda9;
      }
    </style>
  </defs>
  <g id="Layer_1-2">
    <path class="adardev0" d="M141.4,189.7h0l-106.1-.6c-1.9,0-3.8-.8-5.2-2.2-1.4-1.4-2.2-3.3-2.2-5.3,0-1.3.4-2.7,1.1-3.9l26.9-42.9c1.4-2.2,3.8-3.5,6.3-3.5l53.6.3c3.3,0,6.4,1.7,8.3,4.4l25.7,37.7c1.5,2.2,2.1,4.9,1.6,7.5-.5,2.7-2,5-4.2,6.5-1.7,1.2-3.7,1.8-5.7,1.8ZM38.1,180.2l103.2.6h0c.2,0,.5,0,.6-.2.3-.2.4-.5.5-.7s0-.5-.2-.8l-25.7-37.7c-.2-.3-.5-.5-.9-.5l-52.8-.3-24.9,39.7ZM35.2,180.2h0,0ZM62.1,140.5h0,0ZM63.5,139.7h0s0,0,0,0Z"/>
    <path class="adardev0" d="M51.7,177.5l3.6-6.8c.9-1.7,1.7-3.5,2.6-5.2,1-2.1,2.1-4.3,3.3-6.4,1.5-2.7,3.2-5.2,4.9-7.7,2.3-3.4,4.6-6.9,6.4-10.6.2-.5.4-1,.4-1.6v-.5s.3-.4.3-.4c.8-1,1.6-1.9,2.5-2.8l.4-.5h26.6c0,.1-51,42.5-51,42.5ZM75.8,139.8c0,.8-.3,1.6-.7,2.3-1.9,3.9-4.3,7.5-6.6,11-1.6,2.4-3.3,5-4.8,7.6-.9,1.6-1.8,3.4-2.6,5.1l33.3-27.7h-17.1c-.5.5-1,1.1-1.5,1.7Z"/>
    <path class="adardev0" d="M184.4,207.3c-.4,0-.7,0-1.1,0-4.6-.4-8.6-3.1-11-7.3l-64.9-118.2,2.3-2.6c8.6-9.9,15.2-22.1,21.3-33.8,1.6-3,3.2-6.2,4.7-9.2l1-2.1.5-.5,2.7-13.4,6.6,12,65.4,119.1c5.7,10.3,5.1,22.4-1.6,30.7l-16.8,21c-2.2,2.8-5.5,4.3-9.1,4.3ZM119.5,83l61.6,112.1c.8,1.5,2.1,2.1,3.1,2.1.7,0,1.2-.1,1.6-.6l16.8-21c4.1-5.2,4.4-12.9.7-19.6h0s-60.8-110.8-60.8-110.8c-.8,1.6-1.6,3.1-2.4,4.7-5.9,11.2-12.2,22.9-20.4,33Z"/>
    <path class="adardev0" d="M30,212.4c-2.7,0-5-1.2-6.5-3.3l-19-26.6c-6.2-8.8-6-21.2.6-31.7L91.4,14.4C96.9,5.7,106.1.2,115.5,0c7.5-.2,14.2,3.1,18.3,8.9l15.8,22.4L38,207.9c-1.7,2.7-4.7,4.5-7.7,4.5,0,0-.2,0-.2,0ZM31.6,203.3h0s0,0,0,0ZM116.1,10c-.1,0-.2,0-.3,0-6.1.1-12.2,3.9-15.9,9.7L13.6,156.2c-4.4,6.9-4.7,15.2-.9,20.5l17.6,24.7L137.6,31.6l-11.9-17c-2.8-4-7.1-4.7-9.6-4.7Z"/>
    <path class="adardev0" d="M122.2,101.5l-10.8-20.1,24.9-40.7,1.2.5c.3.2.7.3,1.1.3l1.8.2-18.2,59.8ZM114.8,81.5l6.6,12.3,13.9-45.8-20.5,33.5Z"/>
    <path class="adardev0" d="M119.9,85.6c.8-7.6,2.7-15,5.6-22.1.2-.8-.2-1.6-1-1.8-.8-.2-1.6.2-1.8,1-2.9,7.3-4.9,15-5.7,22.9-.2,1.9,2.8,1.9,3,0,0,0,0,0,0,0Z"/>
    <path class="adardev0" d="M115.6,82.8c2,2.4,3.3,5.3,3.7,8.4,0,.8.7,1.5,1.5,1.5.7,0,1.2-.4,1.4-1.1l9.7-32.2c.6-1.9-2.2-2.6-2.9-.8l-9.4,25.6,2.9.8,1.4-7.9c.2-.8-.3-1.6-1.1-1.8-.8-.2-1.5.3-1.8,1l-2.6,6.9c-.7,1.8,2.2,2.6,2.9.8l5.9-15.1c.6-1.4-1.6-2.6-2.5-1.5-2.6,3.1-3.7,7.2-2.8,11.2.2.8,1.1,1.2,1.9,1,.3-.1.7-.3.8-.6l8.4-12.7c1.1-1.6-1.5-3.1-2.6-1.5l-8.4,12.7,2.8.4c-.6-2.9.1-6,2.1-8.3l-2.5-1.4-5.9,15.1,2.9.8,2.6-6.9-2.9-.8-1.4,7.9c-.2.8.3,1.6,1.1,1.8.8.2,1.6-.3,1.8-1l9.5-25.6-2.9-.8-9.7,32.3,2.9.4c-.5-3.9-2.1-7.6-4.6-10.6-1.2-1.5-3.3.7-2.1,2.1h0,0Z"/>
    <path class="adardev0" d="M64.5,165.3l15.2-19.9c.4-.7.2-1.6-.5-2.1-.7-.4-1.6-.1-2,.5l-15.3,19.9c-.4.7-.2,1.6.5,2.1.7.4,1.6.1,2-.5h0Z"/>
    <path class="adardev0" d="M68.8,158.1l8.6-13.7c1-1.6-1.6-3.1-2.6-1.5l-8.6,13.7c-1,1.6,1.6,3.1,2.6,1.5Z"/>
    <path class="adardev0" d="M71,159.9l23.2-19.5c1-.9.2-2.5-1.1-2.6h-7c-2.4-.1-4.8-.3-7.1-.2-2.1.1-3.3,1.2-4.3,3-1.1,1.8-1.8,3.8-2.3,5.9-.2,1.1,1.1,2.5,2.2,1.7,1-.8,1.8-1.8,2.3-2.9.5-1,.8-2.4,2-2.8,1.6-.4,3.3-.6,5-.6,1.9,0,3.8,0,5.7,0l-.4-2.9-7.7,1.1c-2.3.3-4.5.6-6.1,2.4-1.4,1.8-2.5,3.8-3.4,5.9-1.1,2.2-2.1,4.6-3,6.9-.2.8.3,1.6,1.1,1.8.4,0,.8,0,1.1-.1,3-2,5.8-4.3,8.5-6.6,1.3-1.2,2.7-2.4,4-3.7.6-.6,1.2-1.2,1.7-1.8s1.2-1.6,1.9-1.4l.4-2.9-11.1.5v3l4.8-.5-1.1-2.6-7.6,7.8c-.6.6-.5,1.6,0,2.1.5.4,1.2.5,1.7.2,3.5-2,6.8-4.4,9.7-7.2,1.4-1.3-.7-3.5-2.1-2.1-2.7,2.6-5.8,4.9-9.1,6.7l1.8,2.4,7.6-7.8c.8-.9.3-2.7-1.1-2.6l-4.8.5c-1.9.2-2,3.1,0,3l11.1-.5c1.6,0,2.1-2.6.4-2.9-2.1-.4-3.5.8-4.9,2.2s-2.7,2.8-4.2,4.1c-3,2.8-6.1,5.3-9.5,7.6l2.2,1.7c.8-2,1.7-4,2.6-6,.8-1.9,1.8-3.8,3-5.5,1.3-1.5,3.6-1.5,5.4-1.8l7-1.1c1.7-.3,1.2-2.9-.4-2.9-2.1,0-4.1,0-6.2,0-1.8,0-3.6.2-5.3.6-1.3.5-2.5,1.4-3.1,2.7-.6,1-.8,2.6-1.8,3.3l2.2,1.7c.4-1.8,1-3.4,1.8-5,.3-.6.7-1.3,1.3-1.6.9-.2,1.9-.2,2.8,0l11.8.2-1.1-2.5-23.2,19.5c-1.5,1.2.7,3.4,2.1,2.1h0Z"/>
  </g>
</svg>