<?xml version="1.0" encoding="UTF-8"?>
<svg id="Layer_1" data-name="Layer 1" xmlns="http://www.w3.org/2000/svg" viewBox="0 0 64.51 36.18">
  <defs>
    <style>
      .android-1 {
        fill: #58bc77;
      }
    </style>
  </defs>
  <path class="android-1" d="M47.99,10.9l5.35-9.27c.3-.52.12-1.18-.39-1.48-.51-.3-1.18-.13-1.47.39l-5.42,9.39c-4.14-1.89-8.79-2.94-13.8-2.94s-9.66,1.05-13.8,2.94L13.03.54c-.3-.52-.96-.7-1.48-.39-.52.3-.7.96-.39,1.48l5.35,9.27C7.28,15.9,1.03,25.24,0,36.18h64.51c-1.03-10.93-7.28-20.28-16.52-25.28h0ZM17.44,27.12c-1.5,0-2.7-1.21-2.7-2.7s1.21-2.7,2.7-2.7,2.7,1.21,2.7,2.7c0,1.49-1.21,2.7-2.7,2.7ZM47.06,27.12c-1.5,0-2.7-1.21-2.7-2.7s1.21-2.7,2.7-2.7,2.7,1.21,2.7,2.7c0,1.49-1.21,2.7-2.7,2.7Z"/>
</svg>