<?xml version="1.0" encoding="UTF-8"?>
<svg id="Layer_1" data-name="Layer 1" xmlns="http://www.w3.org/2000/svg" viewBox="0 0 43.65 49.5">
  <defs>
    <style>
      .cls-1 {
        fill: #fff;
      }
      .cls-2 {
        fill: #0f75b8;
      }
    </style>
  </defs>
  <polygon class="cls-2" points="21.8 49.5 3.97 44.55 0 0 43.65 0 39.67 44.55 21.8 49.5"/>
  <polygon class="cls-1" points="35.51 9.18 21.84 9.18 21.82 9.18 8.14 9.18 8.27 10.65 8.63 14.64 21.82 14.64 21.84 14.64 22.47 14.64 9.12 20.24 9.61 25.7 21.82 25.7 21.84 25.7 28.55 25.7 27.91 32.79 21.82 34.43 21.82 34.44 15.74 32.79 15.35 28.44 12.39 28.44 9.86 28.44 10.63 37.01 21.82 40.12 21.82 40.12 21.82 40.12 33.02 37.01 34.52 20.24 22.16 20.24 35.02 14.64 35.51 9.18"/>
</svg>