<?xml version="1.0" encoding="UTF-8"?>
<svg id="Layer_1" data-name="Layer 1" xmlns="http://www.w3.org/2000/svg" viewBox="0 0 458.68 576.1">
  <defs>
    <style>
      .cls-1 {
        fill: #ff9100;
      }
      .cls-2 {
        fill: #ffc400;
      }
      .cls-3 {
        fill: #dd2c00;
      }
    </style>
  </defs>
  <path class="cls-1" d="M143.66,559.54c24.11,9.7,50.26,15.46,77.72,16.42,37.16,1.3,72.5-6.39,104.09-20.98-37.88-14.88-72.19-36.65-101.48-63.71-18.98,30.39-47.06,54.4-80.33,68.28Z"/>
  <path class="cls-2" d="M223.99,491.28c-66.84-61.82-107.39-151.3-103.97-249.44.11-3.19.28-6.37.48-9.56-11.97-3.1-24.47-4.99-37.33-5.43-18.41-.64-36.24,1.64-53.07,6.38C12.25,264.48,1.48,300.35.14,338.76c-3.46,99.14,56.53,185.76,143.51,220.79,33.28-13.88,61.35-37.86,80.33-68.28Z"/>
  <path class="cls-1" d="M223.99,491.27c15.54-24.87,24.96-54.03,26.06-85.44,2.89-82.63-52.67-153.72-129.55-173.55-.2,3.18-.36,6.37-.48,9.56-3.43,98.14,37.12,187.62,103.97,249.44Z"/>
  <path class="cls-3" d="M241.45,0c-43.79,35.08-78.37,81.34-99.29,134.62-11.98,30.52-19.5,63.31-21.7,97.67,76.88,19.84,132.44,90.92,129.55,173.55-1.1,31.41-10.55,60.54-26.06,85.44,29.28,27.09,63.59,48.83,101.48,63.71,76.04-35.15,129.99-110.79,133.12-200.25,2.02-57.96-20.25-109.62-51.71-153.23C373.6,155.41,241.45,0,241.45,0Z"/>
</svg>