<?xml version="1.0" encoding="UTF-8"?>
<svg id="Layer_1" data-name="Layer 1" xmlns="http://www.w3.org/2000/svg" viewBox="0 0 59.48 57.99">
  <defs>
    <style>
      .cls-1 {
        fill: #f89a1c;
      }

      .cls-2 {
        fill: #301111;
      }
    </style>
  </defs>
  <g id="Layer_2" data-name="Layer 2">
    <g id="Surfaces">
      <g id="Drawing_Surface" data-name="Drawing Surface">
        <g id="Outline_no_shadow" data-name="Outline no shadow">
          <rect class="cls-2" width="59.48" height="57.99" rx="10.53" ry="10.53"/>
        </g>
      </g>
    </g>
    <g id="Outlined_Mnemonics_Logos" data-name="Outlined Mnemonics Logos">
      <g id="Ai">
        <path class="cls-1" d="M28.82,34.8h-9.22l-1.88,5.83c-.05.22-.25.37-.48.36h-4.67c-.27,0-.36-.15-.28-.44l7.98-22.98c.08-.24.16-.51.24-.82.1-.53.16-1.07.16-1.62-.02-.14.07-.26.21-.28.02,0,.05,0,.07,0h6.34c.19,0,.29.07.32.2l9.06,25.54c.08.27,0,.4-.24.4h-5.19c-.18.02-.36-.1-.4-.28l-2.03-5.91ZM21.04,29.77h6.3c-.16-.53-.35-1.13-.56-1.8-.21-.66-.44-1.38-.68-2.13-.24-.76-.48-1.52-.72-2.27-.24-.76-.46-1.49-.66-2.19-.2-.7-.38-1.35-.54-1.94h-.04c-.22,1.08-.5,2.14-.84,3.19-.37,1.2-.75,2.42-1.14,3.67-.39,1.25-.76,2.41-1.14,3.47h0Z"/>
        <path class="cls-1" d="M42.07,19.08c-.82.03-1.62-.29-2.19-.88-.57-.62-.87-1.43-.84-2.27-.03-.83.3-1.64.9-2.21.59-.57,1.39-.88,2.21-.86.96,0,1.71.29,2.25.86.56.6.85,1.4.82,2.21.03.84-.28,1.66-.86,2.27-.61.6-1.44.92-2.29.88ZM39.32,40.59v-19.07c0-.24.11-.36.32-.36h4.91c.21,0,.32.12.32.36v19.07c0,.27-.11.4-.32.4h-4.87c-.24,0-.36-.13-.36-.4Z"/>
      </g>
    </g>
  </g>
</svg>