<?xml version="1.0" encoding="UTF-8"?>
<svg id="Layer_1" data-name="Layer 1" xmlns="http://www.w3.org/2000/svg" viewBox="0 0 750.98 372.4">
  <defs>
    <style>
      .cls-1 {
        fill: #fff;
      }
    </style>
  </defs>
  <path class="cls-1" d="M3.44,102v264.4h62.25V102H3.44ZM272.52,55.37c63.82,0,104.83,51,104.83,130.8s-41,131.42-104.82,131.42-105.15-51-105.15-131.42,40.68-130.8,105.15-130.8h-.01ZM611.72.62c-78.22,0-133.93,43.18-133.93,107.33,0,51,31.6,82.92,97.95,98.25l46.62,11.28c45.38,10.33,63.82,25.35,63.82,51.32,0,30.05-30.35,51.32-73.52,51.32s-77.3-21.6-80.73-54.75h-62.58c2.5,66.35,56.95,107.03,139.55,107.03,87.3,0,142.08-42.88,142.08-111.07,0-53.5-31.3-83.85-103.88-100.45l-41.63-9.4c-44.12-10.65-62.27-24.73-62.27-48.5,0-30.05,27.52-50.08,68.23-50.08s69.15,20.35,72.28,53.82h61.32c-1.57-63.2-53.82-106.08-133.3-106.08l-.02-.03h.01ZM272.52.62C167.4.62,101.67,72.27,101.67,186.17s65.7,186.18,170.85,186.18,170.52-71.35,170.52-186.18S377.01.62,272.49.62h.03,0ZM34.4,0h-.6C15.13,0,0,15.13,0,33.8s15.13,33.8,33.8,33.8h.65-.02c.27,0,.6.03.92.03,18.67,0,33.8-15.12,33.8-33.8S54.02.03,35.35.03c-.33,0-.65,0-.98.03h.05l-.03-.05h0Z"/>
</svg>