<?xml version="1.0" encoding="UTF-8"?>
<svg id="Layer_1" data-name="Layer 1" xmlns="http://www.w3.org/2000/svg" viewBox="0 0 57.27 57.27">
  <defs>
    <style>
      .cls-1 {
        fill: #010101;
      }

      .cls-2 {
        fill: #f6e014;
      }
    </style>
  </defs>
  <rect class="cls-2" width="57.27" height="57.27"/>
  <g>
    <path class="cls-1" d="M14.83,47.91l4.37-2.64c.84,1.49,1.61,2.76,3.45,2.76s2.87-.69,2.87-3.37v-18.23h5.36v18.3c0,5.55-3.25,8.08-8,8.08-4.29,0-6.78-2.22-8.04-4.9Z"/>
    <path class="cls-1" d="M33.78,47.33l4.37-2.53c1.15,1.88,2.64,3.25,5.28,3.25,2.22,0,3.64-1.11,3.64-2.64,0-1.84-1.45-2.49-3.91-3.56l-1.34-.57c-3.87-1.65-6.43-3.71-6.43-8.08,0-4.02,3.06-7.08,7.85-7.08,3.41,0,5.86,1.19,7.62,4.29l-4.17,2.68c-.92-1.65-1.91-2.3-3.45-2.3s-2.57,1-2.57,2.3c0,1.61,1,2.26,3.29,3.25l1.34.57c4.56,1.95,7.12,3.94,7.12,8.42,0,4.82-3.79,7.47-8.88,7.47s-8.19-2.37-9.76-5.48Z"/>
  </g>
</svg>