<?xml version="1.0" encoding="UTF-8"?>
<svg id="Layer_1" data-name="Layer 1" xmlns="http://www.w3.org/2000/svg" viewBox="0 0 294.93 259.71">
  <defs>
    <style>
      .cls-1 {
        fill: #fff;
      }
    </style>
  </defs>
  <path class="cls-1" d="M175,34.67v-4c-52,0-5,34,0,4ZM199,16.67c7-21,43-23,47,3h-10c-3-15-28-16-28,11,0,15,23,24,28,6h10c-6,33-59,21-47-20ZM53,.67h10v9c5-12,27-13,31,1,7-15,35-14,35,7v37h-11V20.67c0-15-22-15-22,1v33h-11V19.67c-2.45-9.36-14.91-11.23-20-3l-2,5v33h-10V.67ZM76,259.67C29,259.67,0,226.67,0,173.67s29-85,76-85,77,33,77,85-29,86-77,86ZM164,54.67c-29,7-33-30-3-31l14-1v-4c1-12-19-13-22-2h-10c.04-2.47.73-4.88,2-7,8-14,41-14,41,8v37h-10v-9c-2.5,4.6-6.88,7.89-12,9ZM232,259.67c-36-2-61-19-63-49h24c23,72,146-5,25-30-19-4-33-13-39-24-38-74,109-96,113-20h-23c-7-49-98-22-65,12,14,14,43,13,64,22,50,23,26,91-36,89ZM76,109.67c-32,0-52,25-52,64s20,64,52,64,53-24,53-64-20-64-53-64Z"/>
</svg>