<?xml version="1.0" encoding="UTF-8"?>
<svg id="Layer_1" data-name="Layer 1" xmlns="http://www.w3.org/2000/svg" viewBox="0 0 17.4 19.63">
  <defs>
    <style>
      .node-1 {
        fill: #679e63;
      }
    </style>
  </defs>
  <path class="node-1" d="M8.71,19.63c-.26,0-.52-.07-.75-.2l-2.4-1.42c-.36-.2-.18-.27-.07-.31.48-.17.58-.2,1.09-.49.05-.03.12-.02.18,0l1.84,1.1c.07.04.16.04.22,0l7.19-4.15c.07-.04.11-.12.11-.19V5.68c0-.08-.04-.16-.11-.2L8.82,1.33c-.07-.04-.15-.04-.22,0L1.41,5.48c-.07.04-.11.12-.11.2v8.3c0,.08.04.15.11.19l1.97,1.14c1.07.53,1.72-.1,1.72-.73V6.39c0-.12.09-.21.21-.21h.91c.11,0,.21.09.21.21v8.19c0,1.43-.78,2.24-2.13,2.24-.42,0-.74,0-1.66-.45l-1.89-1.09c-.47-.27-.75-.77-.75-1.31V5.67c0-.54.29-1.04.75-1.31L7.94.2c.46-.26,1.06-.26,1.51,0l7.19,4.16c.47.27.76.77.76,1.31v8.3c0,.54-.29,1.04-.76,1.31l-7.19,4.15c-.23.13-.49.2-.76.2"/>
  <path class="node-1" d="M10.93,13.92c-3.15,0-3.81-1.44-3.81-2.66,0-.12.09-.21.21-.21h.93c.1,0,.19.07.21.18.14.95.56,1.42,2.46,1.42,1.51,0,2.16-.34,2.16-1.15,0-.46-.18-.81-2.54-1.04-1.97-.19-3.18-.63-3.18-2.2,0-1.45,1.22-2.32,3.27-2.32,2.3,0,3.44.8,3.59,2.52,0,.06-.02.12-.05.16-.04.04-.09.07-.15.07h-.93c-.1,0-.18-.07-.2-.16-.22-1-.77-1.31-2.25-1.31-1.65,0-1.85.58-1.85,1.01,0,.52.23.68,2.46.97,2.21.29,3.26.71,3.26,2.26s-1.31,2.46-3.59,2.46"/>
</svg>