<?xml version="1.0" encoding="UTF-8"?>
<svg id="Layer_1" data-name="Layer 1" xmlns="http://www.w3.org/2000/svg" viewBox="0 0 46.2 45.05">
  <defs>
    <style>
      .photoshop-1 {
        fill: #56a1d8;
      }

      .photoshop-2 {
        fill: #071f35;
      }
    </style>
  </defs>
  <g id="Layer_2" data-name="Layer 2">
    <g id="Surfaces">
      <g id="Photo_Surface" data-name="Photo Surface">
        <g id="Outline_no_shadow" data-name="Outline no shadow">
          <rect class="photoshop-2" width="46.2" height="45.05" rx="8.18" ry="8.18"/>
        </g>
      </g>
    </g>
    <g id="Outlined_Mnemonics_Logos" data-name="Outlined Mnemonics Logos">
      <g id="Ps">
        <path class="photoshop-1" d="M10.4,31.59V11.78c0-.14.06-.22.19-.22.33,0,.63,0,1.09-.02.45-.01.95-.02,1.47-.03.53-.01,1.08-.02,1.67-.03.59-.01,1.17-.02,1.75-.02,1.57,0,2.89.2,3.97.59.97.33,1.85.87,2.59,1.58.62.62,1.1,1.36,1.41,2.19.29.8.44,1.64.43,2.49,0,1.65-.38,3.02-1.15,4.09-.77,1.08-1.85,1.9-3.1,2.34-1.3.49-2.75.65-4.34.65-.45,0-.78,0-.96-.02-.19-.01-.46-.02-.84-.02v6.18c.02.13-.07.26-.21.28-.02,0-.05,0-.07,0h-3.69c-.14,0-.22-.08-.22-.25ZM14.59,15.29v6.46c.27.02.52.03.74.03h1.02c.75,0,1.5-.12,2.22-.35.61-.18,1.16-.54,1.58-1.02.4-.48.6-1.14.6-1.98.02-.6-.14-1.19-.45-1.7-.33-.5-.8-.88-1.35-1.1-.72-.28-1.49-.41-2.26-.39-.5,0-.94,0-1.32.02-.38.01-.65.03-.79.05h0Z"/>
        <path class="photoshop-1" d="M36.96,20.57c-.58-.3-1.2-.52-1.84-.65-.71-.16-1.43-.25-2.15-.25-.39-.01-.78.04-1.16.14-.24.05-.46.19-.6.39-.1.16-.15.34-.15.53,0,.18.07.36.19.5.18.21.4.39.65.51.44.24.9.45,1.36.64,1.04.35,2.03.82,2.96,1.41.63.4,1.15.95,1.52,1.6.31.62.46,1.3.45,1.98.02.91-.24,1.8-.74,2.56-.54.77-1.29,1.37-2.15,1.72-.94.41-2.1.62-3.49.62-.88,0-1.76-.07-2.62-.25-.68-.12-1.34-.33-1.97-.62-.14-.07-.22-.22-.22-.37v-3.35c0-.07.02-.13.08-.17.05-.03.12-.02.17.02.74.44,1.55.76,2.39.95.74.19,1.5.28,2.26.29.72,0,1.26-.09,1.6-.28.31-.14.52-.46.51-.81,0-.27-.15-.53-.46-.77-.31-.25-.94-.55-1.89-.9-.97-.34-1.9-.81-2.74-1.39-.61-.42-1.1-.98-1.46-1.63-.3-.61-.46-1.29-.45-1.97,0-.82.22-1.62.65-2.32.49-.77,1.19-1.38,2.01-1.77.91-.45,2.05-.68,3.41-.68.8,0,1.6.05,2.39.17.57.07,1.13.22,1.66.45.09.02.15.09.19.17.02.08.03.15.03.23v3.13c0,.07-.03.14-.09.19-.08.04-.18.04-.27,0Z"/>
      </g>
    </g>
  </g>
</svg>