<?xml version="1.0" encoding="UTF-8"?>
<svg id="Layer_1" xmlns="http://www.w3.org/2000/svg" version="1.1" viewBox="0 0 2500 2432">
  <!-- Generator: Adobe Illustrator 29.4.0, SVG Export Plug-In . SVG Version: 2.1.0 Build 152)  -->
  <defs>
    <style>
      .st0 {
        fill: #fff;
      }
    </style>
  </defs>
  <path class="st0" d="M1245.17,0C557.57,0,0,557.47,0,1245.17c0,550.16,356.78,1016.89,851.52,1181.54,62.23,11.52,85.08-27.01,85.08-59.9,0-29.69-1.16-127.78-1.69-231.83-346.42,75.32-419.51-146.91-419.51-146.91-56.64-143.93-138.25-182.19-138.25-182.19-112.97-77.29,8.52-75.7,8.52-75.7,125.04,8.79,190.88,128.32,190.88,128.32,111.05,190.36,291.29,135.32,362.34,103.52,11.17-80.49,43.45-135.41,79.05-166.5-276.56-31.49-567.3-138.26-567.3-615.37,0-135.94,48.64-247.02,128.3-334.22-12.93-31.37-55.55-158.01,12.06-329.52,0,0,104.56-33.47,342.51,127.64,99.32-27.6,205.84-41.43,311.66-41.89,105.82.47,212.42,14.3,311.93,41.89,237.67-161.1,342.08-127.64,342.08-127.64,67.77,171.51,25.14,298.15,12.21,329.52,79.83,87.2,128.14,198.27,128.14,334.22,0,478.24-291.29,583.55-568.55,614.38,44.66,38.64,84.45,114.42,84.45,230.59,0,166.6-1.45,300.69-1.45,341.71,0,33.13,22.41,71.96,85.54,59.74,494.47-164.83,850.8-631.41,850.8-1181.38C2490.32,557.47,1932.83,0,1245.17,0"/>
  <path class="st0" d="M466.36,1773.77c-2.73,6.18-12.48,8.04-21.34,3.8-9.03-4.06-14.11-12.5-11.18-18.71,2.69-6.37,12.43-8.14,21.45-3.87,9.05,4.05,14.21,12.57,11.07,18.78M527.61,1828.42c-5.94,5.51-17.55,2.95-25.43-5.75-8.14-8.68-9.67-20.28-3.64-25.88,6.12-5.5,17.38-2.93,25.55,5.76,8.14,8.78,9.73,20.31,3.52,25.88M569.63,1898.34c-7.64,5.3-20.12.33-27.82-10.74-7.63-11.06-7.63-24.35.17-29.67,7.73-5.32,20.02-.54,27.83,10.45,7.62,11.26,7.62,24.54-.19,29.97M640.68,1979.33c-6.83,7.52-21.36,5.51-32-4.77-10.88-10.04-13.92-24.29-7.07-31.82,6.9-7.54,21.52-5.42,32.25,4.77,10.81,10.02,14.11,24.38,6.84,31.82M732.52,2006.67c-3,9.75-17,14.18-31.1,10.04-14.08-4.27-23.3-15.69-20.46-25.55,2.93-9.81,16.99-14.43,31.2-10,14.06,4.25,23.3,15.59,20.37,25.51M837.05,2018.26c.35,10.27-11.61,18.79-26.42,18.97-14.89.32-26.93-7.99-27.09-18.09,0-10.37,11.69-18.81,26.57-19.05,14.8-.29,26.93,7.96,26.93,18.16M939.73,2014.33c1.78,10.02-8.52,20.31-23.21,23.05-14.45,2.64-27.83-3.54-29.68-13.48-1.8-10.27,8.69-20.56,23.12-23.22,14.73-2.56,27.9,3.47,29.78,13.65"/>
</svg>