<?xml version="1.0" encoding="UTF-8"?>
<svg id="Layer_1" xmlns="http://www.w3.org/2000/svg" version="1.1" viewBox="0 0 800 800">
  <defs>
    <style>
      .st0 {
        fill: #fff;
      }
    </style>
  </defs>
  <path class="st0" d="M173.75,166.23c22.39,18.19,30.8,16.8,72.85,14l396.45-23.8c8.41,0,1.41-8.39-1.39-9.78l-65.85-47.6c-12.61-9.79-29.42-21.01-61.64-18.21l-383.88,28c-14,1.39-16.8,8.39-11.22,14l54.67,43.39ZM197.55,258.62v417.13c0,22.42,11.2,30.81,36.42,29.42l435.69-25.21c25.23-1.39,28.04-16.81,28.04-35.02V230.61c0-18.18-6.99-27.99-22.44-26.59l-455.31,26.59c-16.8,1.41-22.41,9.82-22.41,28.01ZM627.67,281c2.79,12.61,0,25.21-12.63,26.63l-20.99,4.18v307.95c-18.23,9.8-35.03,15.4-49.04,15.4-22.42,0-28.04-7-44.84-27.99l-137.32-215.57v208.57l43.45,9.8s0,25.18-35.06,25.18l-96.64,5.61c-2.81-5.61,0-19.59,9.8-22.39l25.22-6.99v-275.77l-35.02-2.81c-2.81-12.61,4.19-30.79,23.81-32.2l103.68-6.99,142.9,218.37v-193.18l-36.44-4.18c-2.8-15.42,8.4-26.61,22.41-28l96.7-5.63ZM98.07,71.05l399.3-29.4c49.04-4.21,61.65-1.39,92.47,21l127.46,89.59c21.03,15.41,28.04,19.6,28.04,36.39v491.34c0,30.79-11.22,49-50.44,51.79l-463.7,28.01c-29.44,1.4-43.45-2.79-58.87-22.41l-93.86-121.78c-16.82-22.42-23.81-39.19-23.81-58.81V120.02c0-25.18,11.22-46.19,43.42-48.98Z"/>
</svg>