<?xml version="1.0" encoding="UTF-8"?>
<svg id="Layer_1" xmlns="http://www.w3.org/2000/svg" version="1.1" viewBox="0 0 2500 1251">
  <!-- Generator: Adobe Illustrator 29.4.0, SVG Export Plug-In . SVG Version: 2.1.0 Build 152)  -->
  <defs>
    <style>
      .st0 {
        fill: #fff;
      }
    </style>
  </defs>
  <path class="st0" d="M197.03,263.15h369.24c108.37.91,186.91,32.16,235.6,93.69,48.69,61.53,64.75,145.57,48.22,252.13-6.42,48.69-20.67,96.44-42.71,143.29-21.42,47.27-51.31,90.23-88.18,126.75-45.93,47.75-95.06,78.06-147.42,90.93s-106.55,19.29-162.57,19.29h-165.33l-52.35,261.77H.01L197.03,263.15ZM358.23,420.21l-82.67,413.33c5.51.91,11.02,1.38,16.53,1.38h19.29c88.18.91,161.67-7.8,220.44-26.18,58.78-19.29,98.29-86.33,118.49-201.15,16.53-96.44,0-152.02-49.6-166.71-48.69-14.69-109.75-21.58-183.24-20.67-11.02.91-21.58,1.38-31.69,1.38h-28.93l1.38-1.38ZM1068.24,0h190.13l-53.73,263.15h170.84c93.69,1.85,163.48,21.13,209.42,57.87,46.84,36.73,60.62,106.55,41.33,209.42l-92.31,458.79h-192.89l88.18-438.13c9.18-45.93,6.42-78.53-8.27-97.82s-46.38-28.93-95.07-28.93l-152.93-1.38-112.98,566.26h-190.13L1068.24,0ZM1830.4,263.15h369.24c108.37.91,186.91,32.16,235.6,93.69s64.75,145.57,48.22,252.13c-6.42,48.69-20.67,96.44-42.71,143.29-21.42,47.27-51.31,90.23-88.18,126.75-45.93,47.75-95.06,78.06-147.42,90.93s-106.55,19.29-162.57,19.29h-165.33l-52.36,261.77h-191.51l197.02-987.85ZM1991.6,420.21l-82.67,413.33c5.51.91,11.02,1.38,16.53,1.38h19.29c88.18.91,161.67-7.8,220.44-26.18,58.78-19.29,98.29-86.33,118.49-201.15,16.53-96.44,0-152.02-49.6-166.71-48.69-14.69-109.75-21.58-183.24-20.67-11.02.91-21.58,1.38-31.69,1.38h-28.93l1.38-1.38Z"/>
</svg>