<?xml version="1.0" encoding="UTF-8"?>
<svg id="Layer_1" data-name="Layer 1" xmlns="http://www.w3.org/2000/svg" viewBox="0 0 61.3 54.55">
  <defs>
    <style>
      .cls-1 {
        fill: #4dc8ed;
      }
    </style>
  </defs>
  <path class="cls-1" d="M36.15,27.27c0,3.04-2.46,5.5-5.5,5.5s-5.5-2.46-5.5-5.5,2.46-5.5,5.5-5.5,5.5,2.46,5.5,5.5Z"/>
  <path class="cls-1" d="M30.65,14.78C13.72,14.78,0,20.37,0,27.27s13.72,12.5,30.65,12.5,30.65-5.6,30.65-12.5-13.72-12.5-30.65-12.5ZM51.36,33.75c-5.49,2.24-12.84,3.47-20.71,3.47s-15.22-1.23-20.71-3.47c-4.63-1.89-7.39-4.31-7.39-6.48s2.76-4.59,7.39-6.48c5.49-2.24,12.84-3.47,20.71-3.47s15.22,1.23,20.71,3.47c4.63,1.89,7.39,4.31,7.39,6.48s-2.76,4.59-7.39,6.48Z"/>
  <path class="cls-1" d="M19.83,21.02c-8.46,14.66-10.48,29.34-4.5,32.79,5.98,3.45,17.68-5.63,26.15-20.29,8.46-14.66,10.48-29.34,4.5-32.79-5.98-3.45-17.68,5.63-26.15,20.29ZM46.61,12.58c-.81,5.87-3.42,12.86-7.35,19.67-3.93,6.81-8.68,12.56-13.36,16.2-3.95,3.06-7.42,4.25-9.3,3.16-1.88-1.08-2.59-4.69-1.91-9.64.81-5.87,3.42-12.86,7.35-19.67,3.93-6.81,8.68-12.56,13.36-16.2,3.95-3.06,7.42-4.25,9.3-3.16,1.88,1.08,2.59,4.69,1.91,9.64Z"/>
  <path class="cls-1" d="M15.32.73c-5.98,3.45-3.96,18.13,4.5,32.79,8.46,14.66,20.17,23.74,26.15,20.29,5.98-3.45,3.96-18.13-4.5-32.79C33.01,6.37,21.3-2.72,15.32.73ZM16.6,2.94c1.88-1.08,5.36.1,9.3,3.16,4.68,3.64,9.43,9.39,13.36,16.2,3.93,6.81,6.54,13.8,7.35,19.67.68,4.95-.04,8.55-1.91,9.64-1.88,1.08-5.35-.1-9.3-3.16-4.68-3.64-9.43-9.39-13.36-16.2-3.93-6.81-6.54-13.8-7.35-19.67-.68-4.95.04-8.55,1.91-9.64Z"/>
</svg>