<?xml version="1.0" encoding="UTF-8"?>
<svg id="Layer_1" data-name="Layer 1" xmlns="http://www.w3.org/2000/svg" viewBox="0 0 44.6 64">
  <defs>
    <style>
      .cls-1 {
        fill: #6772e5;
        fill-rule: evenodd;
      }
    </style>
  </defs>
  <path class="cls-1" d="M17.76,19.03c0-2.74,2.28-3.8,5.96-3.8,6.1.13,12.08,1.68,17.48,4.52V3.21C35.64,1.03,29.7-.06,23.72,0,9.52,0,0,7.44,0,19.86c0,19.43,26.68,16.28,26.68,24.65,0,3.28-2.8,4.29-6.74,4.29-5.81,0-13.31-2.4-19.2-5.6v16.76c6.06,2.64,12.59,4.01,19.2,4.04,14.59,0,24.65-7.21,24.65-19.85,0-20.97-26.84-17.23-26.84-25.12h0Z"/>
</svg>