<?xml version="1.0" encoding="UTF-8"?>
<svg id="Layer_1" data-name="Layer 1" xmlns="http://www.w3.org/2000/svg" viewBox="0 0 696.35 530.06">
  <defs>
    <style>
      .cls-1 {
        fill: #d7e9ff;
        fill-rule: evenodd;
      }
    </style>
  </defs>
  <path class="cls-1" d="M199.21,110.27H1.2c-.95,0-1.52-1.06-.99-1.86L72.14.59c.22-.33.59-.53.99-.53h126.07c.66,0,1.19.53,1.19,1.19v107.82c0,.66-.53,1.19-1.19,1.19Z"/>
  <path class="cls-1" d="M220.42.06h107.94c.66,0,1.19.53,1.19,1.19v409.31c0,.3-.11.58-.31.8l-107.94,118.3c-.73.8-2.07.29-2.07-.8V1.26c0-.66.53-1.19,1.19-1.19Z"/>
  <path class="cls-1" d="M667.15,527.76l-224.32-262.77h-151.62c-1.13,0-1.74,1.32-1.01,2.18l223.73,262.31c.25.29.62.46,1.01.46h151.2c1.13,0,1.74-1.32,1.01-2.18Z"/>
  <path class="cls-1" d="M667.01,2.18l-224.32,262.77h-151.62c-1.13,0-1.74-1.32-1.01-2.18L513.79.46c.25-.29.62-.46,1.01-.46h151.2c1.13,0,1.74,1.32,1.01,2.18Z"/>
  <path class="cls-1" d="M481.12,2.03l-91.85,107.93c-.23.27-.56.42-.91.42h-167.94c-.66,0-1.19-.53-1.19-1.19V1.26c0-.66.53-1.19,1.19-1.19h259.79c1.02,0,1.57,1.19.91,1.97Z"/>
  <path class="cls-1" d="M466.21,265.06l188.86,221.42c.38.45.95.71,1.54.71h38.8c.8,0,1.24-.94.72-1.55l-188.14-220.58h-41.77Z"/>
  <path class="cls-1" d="M466.21,265.07l189.01-221.6c.29-.34.71-.54,1.16-.54h38.37c1.06,0,1.64,1.24.95,2.05l-187.72,220.08h-41.77Z"/>
</svg>