<?xml version="1.0" encoding="UTF-8"?>
<svg id="Layer_1" data-name="Layer 1" xmlns="http://www.w3.org/2000/svg" viewBox="0 0 76.74 70.02">
  <defs>
    <style>
      .cls-1 {
        fill: #3fb17e;
      }

      .cls-2 {
        fill: #31485e;
      }
    </style>
  </defs>
  <path class="cls-1" d="M76.55.17l-15.74-.03-22.54,41.87L15.92.03.19,0C.02,0-.05.12.03.26.03.26,38.15,70.01,38.2,70.02c0,0,0-.01.02-.03.01.02.02.03.02.03.05,0,38.47-69.59,38.47-69.59.08-.14,0-.26-.15-.26Z"/>
  <polygon class="cls-2" points="47.3 .1 38.33 16.58 29.44 .06 15.92 .03 38.28 42 60.82 .13 47.3 .1"/>
</svg>