<?xml version="1.0" encoding="UTF-8"?>
<svg id="Layer_1" data-name="Layer 1" xmlns="http://www.w3.org/2000/svg" viewBox="0 0 33.27 32.43">
  <defs>
    <style>
      .cls-1 {
        fill: #460437;
      }

      .cls-2 {
        fill: #cb74af;
      }
    </style>
  </defs>
  <g id="Layer_2" data-name="Layer 2">
    <g id="Surfaces">
      <g id="UI_UX_Surface" data-name="UI UX Surface">
        <g id="Outline_no_shadow" data-name="Outline no shadow">
          <rect class="cls-1" width="33.27" height="32.43" rx="5.89" ry="5.89"/>
        </g>
      </g>
    </g>
    <g id="Outlined_Mnemonics_Logos" data-name="Outlined Mnemonics Logos">
      <g id="Xd">
        <path class="cls-2" d="M17.49,8.53l-4.15,6.85,4.44,7.27c.03.05.04.11.02.17-.02.05-.07.02-.16.03h-3.17c-.22,0-.38,0-.47-.16-.3-.58-.6-1.16-.89-1.73-.3-.57-.61-1.16-.95-1.75-.33-.59-.67-1.2-.99-1.81h-.02c-.3.6-.61,1.19-.93,1.79-.32.6-.64,1.19-.95,1.77-.31.59-.63,1.17-.96,1.75-.06.13-.16.15-.31.15h-3.06c-.06,0-.09.02-.1-.04,0-.05,0-.11.03-.16l4.31-7.07-4.2-7.1c-.04-.06-.05-.11-.02-.15.03-.04.08-.06.13-.06h3.15c.07,0,.14,0,.2.03.05.03.1.07.13.12.27.6.57,1.19.89,1.79.33.6.66,1.18.99,1.76.33.58.64,1.17.93,1.76h.02c.3-.61.6-1.2.9-1.79.3-.58.62-1.16.94-1.75.32-.59.63-1.17.93-1.75.02-.06.05-.1.09-.15.06-.03.12-.04.18-.03h2.92c.07-.02.14.02.15.09.01.05,0,.1-.04.13h0Z"/>
        <path class="cls-2" d="M23.89,23.15c-1.03.02-2.04-.2-2.98-.62-.87-.4-1.6-1.06-2.09-1.89-.51-.84-.76-1.89-.76-3.16,0-1.02.25-2.03.76-2.92.52-.91,1.29-1.65,2.21-2.14.97-.54,2.13-.8,3.5-.8.07,0,.17,0,.29.01.12,0,.26.02.42.03v-4.4c0-.1.04-.16.13-.16h2.81c.06,0,.12.04.13.1,0,.01,0,.02,0,.03v13.19c0,.25.01.53.03.83.02.3.04.57.06.8,0,.09-.05.18-.13.22-.73.3-1.48.53-2.25.67-.71.13-1.42.2-2.14.2ZM25.25,20.38v-6.09c-.12-.03-.24-.06-.37-.07-.15-.02-.3-.02-.46-.02-.54,0-1.08.12-1.56.36-.47.24-.88.59-1.17,1.03-.31.45-.46,1.03-.46,1.76-.01.49.07.97.23,1.43.13.37.35.7.62.98.26.26.59.45.94.56.37.12.76.18,1.15.18.21,0,.4,0,.58-.02.17-.01.33-.04.49-.09Z"/>
      </g>
    </g>
  </g>
</svg>