<?xml version="1.0" encoding="UTF-8"?>
<svg id="Layer_1" data-name="Layer 1" xmlns="http://www.w3.org/2000/svg" viewBox="0 0 1028.94 614.97">
  <defs>
    <style>
      .cls-1 {
        fill: #fff;
      }
    </style>
  </defs>
  <path class="cls-1" d="M465.22,588.6c-6.65,20.17-28.42,31.09-48.55,24.42l-1.58-.52c-20.18-6.63-31.1-28.4-24.42-48.55L568.46,26.38c6.65-20.17,28.42-31.09,48.55-24.42l1.58.52c20.18,6.63,31.1,28.4,24.42,48.55l-177.78,537.57h0Z"/>
  <path class="cls-1" d="M97.31,292.97c-1.24,1.24-1.24,3.18,0,4.35,87.85,87.22,142.86,141.14,165.19,161.8,24.67,22.88,33.73,47.62,7.95,72.3-26.82,25.57-44.86,2.83-66.9-18.8C116.04,426.71,54.73,366.44,19.62,331.89c-31.93-31.45-21.36-51.15,6.5-78.03,46.79-45.13,101.32-98.21,163.74-159.31,17.35-17,30.14-29.24,38.29-36.7,1.87-1.66,4.15-2.7,6.57-2.9,15.14-1.52,25.64.35,31.59,5.6,23.02,20.39,23.02,42.23,0,65.52-21.98,22.19-78.31,77.82-168.99,166.92h0Z"/>
  <path class="cls-1" d="M924.63,303.69c3.52-3.46,3.52-9.12.07-12.65-54.81-55.16-106.37-106.37-154.82-153.65-4.08-3.94-12.3-13.13-24.74-27.44-7.05-8.22-8.78-17.28-5.18-27.16,10.02-27.65,44.23-38.08,66.21-16.45,103.88,102.36,175.35,173.14,214.33,212.39,9.75,9.81,11.06,23.02,3.94,39.67-.76,1.8-1.94,3.53-3.39,4.91-21.5,21.22-39.26,38.36-53.43,51.35-55.98,51.35-103.4,100.29-164.01,160.76-5.32,5.32-11.96,9.05-19.77,11.2-2.14.55-4.42.48-6.57-.28-12.44-4.63-21.98-6.29-30.69-16.38-16.1-18.73-13.55-38.43,7.67-59.23,62.83-61.58,119.64-117.22,170.37-167.05h0Z"/>
</svg>