<?xml version="1.0" encoding="UTF-8"?>
<svg id="Layer_1" xmlns="http://www.w3.org/2000/svg" version="1.1" viewBox="0 0 35.7 48.6">
  <defs>
    <style>
      .st0 {
        fill: #198980;
      }
      .st1 {
        fill: #0b7972;
      }
    </style>
  </defs>
  <path class="st0" d="M34.5,47.1c-1,1-2.2,1.5-3.6,1.5-10.6,0-19.4,0-26.2,0-1.9,0-3.7-1.5-4.3-3.2C.1,45,0,44,0,42.6c0-11.4,0-24,0-37.7,0-.3,0-.7.2-1.4C.6,2,1.9.9,3.3.3c.4-.2,1-.3,1.8-.3,7,0,12.3,0,16,0,1.1,0,2,.3,2.7,1,3.4,3.2,6.4,6.3,10.2,10.1,1.1,1.1,1.7,1.9,1.7,3.4v28.9c0,.9,0,1.6-.2,2-.2.7-.6,1.2-1,1.7M33.2,14.8s0,0,0,0c-3.8,0-6.4,0-7.8,0-.8,0-1.4-.1-1.8-.3-1.7-.9-2.6-2.2-2.6-4.2,0-2.4,0-4.9,0-7.5,0-.2-.1-.3-.3-.3-8,0-13,0-14.9,0s-1.5,0-2,.3c-.9.5-1.4,1.3-1.4,2.5,0,16.8,0,29.2,0,37.3,0,.9,0,1.5.1,1.7.2.6.6,1,1.1,1.3.4.2,1.2.3,2.4.3,8,0,15.9,0,23.7,0,.5,0,.9,0,1.1,0h.1c.9,0,1.5-.5,1.9-1.2.2-.3.2-1.1.2-2.2,0-16.4,0-25.7,0-27.9M24.1,11.7c.4.4.9.6,1.6.6h5.8c0,0,.1-.1,0-.1-.5-.5-1.8-1.8-4-4-2.2-2.2-3.5-3.5-4-4,0,0-.1,0-.1,0v5.8c0,.7.2,1.2.6,1.6h0Z"/>
  <path class="st0" d="M26.9,19.6c.9,0,1.7.7,1.7,1.7h0c0,1-.7,1.7-1.7,1.7H6c-.9,0-1.7-.7-1.7-1.7h0c0-1,.7-1.7,1.7-1.7h21Z"/>
  <path class="st1" d="M17.7,37.9c.9,0,1.6.7,1.6,1.6v.2c0,.9-.7,1.6-1.6,1.6H5.9c-.9,0-1.6-.7-1.6-1.6v-.2c0-.9.7-1.6,1.6-1.6h11.8,0Z"/>
  <path class="st0" d="M17.6,28.5c.9,0,1.6.7,1.6,1.6h0c0,1-.7,1.7-1.6,1.7H6c-.9,0-1.6-.7-1.6-1.5h0c0-1,.7-1.7,1.6-1.7h11.6Z"/>
</svg>