<?xml version="1.0" encoding="UTF-8"?>
<svg id="Layer_1" data-name="Layer 1" xmlns="http://www.w3.org/2000/svg" viewBox="0 0 603.38 585.19">
  <defs>
    <style>
      .cls-1 {
        fill: #fff;
      }
    </style>
  </defs>
  <path class="cls-1" d="M476.01,585.19H127.38c-70.24,0-127.38-57.14-127.38-127.38,0-16.02,12.99-29.01,29.01-29.01s29.01,12.99,29.01,29.01c0,38.24,31.11,69.36,69.36,69.36h348.63c38.24,0,69.36-31.11,69.36-69.36,0-16.02,12.99-29.01,29.01-29.01s29.01,12.99,29.01,29.01c0,70.24-57.14,127.38-127.38,127.38Z"/>
  <path class="cls-1" d="M301.69,449.9c-16.02,0-29.01-12.99-29.01-29.01V29.01c0-16.02,12.99-29.01,29.01-29.01s29.01,12.99,29.01,29.01v391.88c0,16.02-12.99,29.01-29.01,29.01Z"/>
  <path class="cls-1" d="M301.69,449.9c-7.69,0-15.07-3.06-20.51-8.5l-160.87-160.87c-11.33-11.33-11.33-29.7,0-41.02,11.33-11.33,29.7-11.33,41.03,0l140.35,140.36,141.67-141.67c11.33-11.33,29.7-11.33,41.03,0,11.33,11.33,11.33,29.7,0,41.02l-162.19,162.19c-5.44,5.44-12.82,8.5-20.51,8.5Z"/>
</svg>