<?xml version="1.0" encoding="UTF-8"?>
<svg id="Layer_1" data-name="Layer 1" xmlns="http://www.w3.org/2000/svg" viewBox="0 0 62.77 50.17">
  <defs>
    <style>
      .cls-1 {
        fill: #fff;
      }
    </style>
  </defs>
  <path class="cls-1" d="M52.27,0H10.5C4.71,0,0,4.71,0,10.5v29.17c0,5.79,4.71,10.5,10.5,10.5h41.77c5.79,0,10.5-4.71,10.5-10.5V10.5c0-5.79-4.71-10.5-10.5-10.5ZM42.46,25.26l15.94-16.68c.19.61.3,1.25.3,1.93v29.17c0,.67-.1,1.31-.29,1.92l-15.94-16.33ZM52.27,4.08c1.37,0,2.63.43,3.68,1.16l-18.09,18.93c-2.31,2.4-4.43,3.57-6.47,3.57s-4.16-1.17-6.47-3.56L6.82,5.24c1.04-.73,2.31-1.16,3.68-1.16h41.77ZM4.37,41.59c-.19-.61-.29-1.25-.29-1.92V10.5c0-.67.1-1.32.3-1.93l15.94,16.69-15.94,16.33ZM10.5,46.09c-1.37,0-2.64-.43-3.69-1.17l16.36-16.76c2.72,2.45,5.41,3.65,8.21,3.65s5.49-1.2,8.21-3.65l16.36,16.76c-1.04.74-2.32,1.17-3.69,1.17H10.5Z"/>
</svg>