<?xml version="1.0" encoding="UTF-8"?>
<svg id="Layer_1" data-name="Layer 1" xmlns="http://www.w3.org/2000/svg" viewBox="0 0 72.37 79.9">
  <defs>
    <style>
      .cls-1 {
        fill: #fff;
      }
    </style>
  </defs>
  <path class="cls-1" d="M36.18,40.47c11.16,0,20.23-9.08,20.23-20.23S47.34,0,36.18,0,15.95,9.08,15.95,20.23s9.08,20.23,20.23,20.23ZM36.18,5.07c8.36,0,15.16,6.8,15.16,15.16s-6.8,15.16-15.16,15.16-15.16-6.8-15.16-15.16,6.8-15.16,15.16-15.16Z"/>
  <path class="cls-1" d="M72.01,71.38c-2.36-7.36-7.06-13.96-13.28-18.62-6.55-4.91-14.34-7.51-22.55-7.51s-16,2.6-22.55,7.51c-6.21,4.66-10.91,11.26-13.28,18.62-.62,1.94-.46,4.12.69,5.8s3.09,2.72,5.17,2.72h59.92c2.08,0,3.98-1,5.17-2.72s1.32-3.85.69-5.8ZM67.1,74.34c-.13.18-.44.49-.96.49H6.22c-.52,0-.83-.3-.96-.49-.13-.18-.33-.56-.18-1.06,4.23-13.73,16.72-22.95,31.1-22.95s26.88,9.22,31.1,22.95c.15.5-.05.88-.18,1.06Z"/>
</svg>