<?xml version="1.0" encoding="UTF-8"?>
<svg id="Layer_1" xmlns="http://www.w3.org/2000/svg" version="1.1" viewBox="0 0 66.8 66.8">
  <defs>
    <style>
      .st0 {
        fill: #198980;
      }
    </style>
  </defs>
  <path class="st0" d="M33.4,0C15,0,0,15,0,33.4s15,33.4,33.4,33.4,33.4-15,33.4-33.4S51.8,0,33.4,0ZM33.4,62.5c-2.9,0-6.6-5.9-8.5-16.2h16.9c-1.8,10.2-5.5,16.2-8.5,16.2h0ZM24.3,42.1c-.3-2.7-.5-5.6-.5-8.7s.2-6,.5-8.7h18.1c.3,2.7.5,5.6.5,8.7s-.2,6-.5,8.7c0,0-18.1,0-18.1,0ZM4.2,33.4c0-3,.5-6,1.3-8.7h14.5c-.3,2.8-.5,5.8-.5,8.7s.1,5.9.5,8.7H5.6c-.9-2.8-1.3-5.7-1.3-8.7ZM33.4,4.2c2.9,0,6.7,5.9,8.5,16.2h-16.9c1.8-10.2,5.5-16.2,8.5-16.2h0ZM46.7,24.6h14.5c.9,2.8,1.3,5.7,1.3,8.7s-.5,6-1.3,8.7h-14.5c.3-2.8.5-5.8.5-8.7s-.2-5.9-.5-8.7ZM59.5,20.4h-13.4c-.6-3.6-1.5-7-2.5-9.9-.8-2-1.6-3.8-2.6-5.3,8.1,2.2,14.8,7.8,18.4,15.2ZM25.7,5.3c-.9,1.5-1.8,3.2-2.6,5.3-1.1,2.9-1.9,6.2-2.5,9.9H7.3c3.7-7.4,10.4-12.9,18.4-15.1,0,0,0,0,0,0ZM7.3,46.4h13.4c.6,3.6,1.5,7,2.5,9.9.8,2,1.6,3.8,2.6,5.3-8.1-2.2-14.8-7.8-18.4-15.1ZM41,61.5c.9-1.5,1.8-3.2,2.6-5.3,1.1-2.9,1.9-6.2,2.5-9.9h13.3c-3.7,7.3-10.4,13-18.4,15.1Z"/>
</svg>